<?xml version="1.0" encoding="UTF-8" standalone="no"?>
<!-- Created with Inkscape (http://www.inkscape.org/) -->

<svg
   width="256"
   height="256"
   viewBox="0 0 256 256"
   version="1.1"
   id="svg1"
   xml:space="preserve"
   sodipodi:docname="app-icon.svg"
   inkscape:version="1.3.2 (091e20e, 2023-11-25, custom)"
   inkscape:export-filename="app-icon.png"
   inkscape:export-xdpi="384"
   inkscape:export-ydpi="384"
   xmlns:inkscape="http://www.inkscape.org/namespaces/inkscape"
   xmlns:sodipodi="http://sodipodi.sourceforge.net/DTD/sodipodi-0.dtd"
   xmlns="http://www.w3.org/2000/svg"
   xmlns:svg="http://www.w3.org/2000/svg"><sodipodi:namedview
     id="namedview1"
     pagecolor="#b7b7b7"
     bordercolor="#666666"
     borderopacity="1.0"
     inkscape:showpageshadow="2"
     inkscape:pageopacity="0.0"
     inkscape:pagecheckerboard="false"
     inkscape:deskcolor="#d1d1d1"
     inkscape:document-units="px"
     showguides="true"
     inkscape:zoom="0.08"
     inkscape:cx="-2400"
     inkscape:cy="-1756.25"
     inkscape:window-width="1920"
     inkscape:window-height="1009"
     inkscape:window-x="-8"
     inkscape:window-y="-8"
     inkscape:window-maximized="1"
     inkscape:current-layer="layer1" /><defs
     id="defs1"><inkscape:path-effect
       effect="offset"
       id="path-effect135"
       is_visible="true"
       lpeversion="1.2"
       linejoin_type="miter"
       unit="mm"
       offset="0.5"
       miter_limit="4"
       attempt_force_join="false"
       update_on_knot_move="true" /><inkscape:path-effect
       effect="offset"
       id="path-effect133"
       is_visible="true"
       lpeversion="1.2"
       linejoin_type="miter"
       unit="mm"
       offset="0.6"
       miter_limit="4"
       attempt_force_join="false"
       update_on_knot_move="true" /><inkscape:path-effect
       effect="offset"
       id="path-effect86"
       is_visible="true"
       lpeversion="1.2"
       linejoin_type="miter"
       unit="mm"
       offset="0.5"
       miter_limit="4"
       attempt_force_join="false"
       update_on_knot_move="true" /><inkscape:path-effect
       effect="offset"
       id="path-effect84"
       is_visible="true"
       lpeversion="1.2"
       linejoin_type="miter"
       unit="mm"
       offset="0.6"
       miter_limit="4"
       attempt_force_join="false"
       update_on_knot_move="true" /><inkscape:path-effect
       effect="offset"
       id="path-effect53"
       is_visible="true"
       lpeversion="1.2"
       linejoin_type="miter"
       unit="mm"
       offset="0.5"
       miter_limit="4"
       attempt_force_join="false"
       update_on_knot_move="true" /><inkscape:path-effect
       effect="offset"
       id="path-effect51"
       is_visible="true"
       lpeversion="1.2"
       linejoin_type="miter"
       unit="mm"
       offset="0.6"
       miter_limit="4"
       attempt_force_join="false"
       update_on_knot_move="true" /><mask
       maskUnits="userSpaceOnUse"
       id="mask213"><path
         id="path213"
         style="fill:#000000;fill-opacity:1;stroke:none;stroke-width:1.2066;stroke-linecap:round;stroke-linejoin:round;stroke-dasharray:none;stroke-dashoffset:85.3039;stroke-opacity:1"
         d="m -544.87781,-199.95161 c -46.17657,0 -96.54089,24.00875 -128.73241,55.98243 -2.47287,-7.68115 -4.74916,-15.18998 -10.26954,-21.36328 -17.36266,-19.41627 -51.19317,-17.42493 -65.75392,4.08398 -17.88351,26.41723 -4.93889,61.99176 23.83401,73.953127 l -40.6543,118.87891 -12.23048,43.541009 22.26758,-6.910156 c 4.42311,18.452835 -2.50499,39.25265 -8.35158,56.67383 -6.68043,19.90595 -14.64291,40.913 -19.91407,61.91797 6.70828,5.97956 14.29527,10.96551 22.58597,14.74025 0.034,-0.18578 0.076,-0.46649 0.11111,-0.63087 1.3982,-6.4839 3.09341,-12.94038 4.79106,-19.35352 6.51284,-24.60351 9.8468,-50.87068 22.34761,-73.26173 h 0.69532 c 12.79198,18.03701 32.99895,27.87151 51.49414,38.70509 -14.35195,4.552 -25.89312,11.51839 -36.12695,22.80664 -2.17583,2.40004 -5.80577,5.42187 -8.78887,9.66069 -6.1279,9.22755 -12.71664,17.7222 -16.40838,28.12642 3.21778,0.69941 6.48617,1.26076 9.82421,1.60938 h 14.61914 c 2.25215,-8.11312 8.82237,-13.5997 14.61328,-19.35158 2.05658,5.99888 6.08754,15.3153 11.94728,18.53714 3.86815,2.12683 10.88031,0.81444 15.19139,0.81444 5.50889,0 13.59349,1.48398 18.78713,-0.41797 7.73023,-2.8309 18.4916,-16.09693 21.05078,-23.77149 3.87228,-11.61238 -0.8084,-23.89398 -9.91604,-31.64843 -2.99107,-2.5467 -9.07796,-3.98162 -11.11521,-7.24611 -1.33976,-2.1468 -0.71485,-5.69213 -0.71485,-8.10546 0,-6.02711 -1.77506,-12.73184 -0.32429,-18.66016 2.71688,-11.1018 16.27249,-8.68917 24.67967,-8.32032 23.15176,1.01581 46.37798,0.71682 69.58396,0.71682 7.5825,0 19.89952,-3.58111 26.41216,1.14256 7.0277,5.09732 3.8587,16.44633 3.53708,23.74023 -0.13041,2.95634 0.54733,6.35548 -1.14256,8.98243 -3.92232,6.0973 -11.9948,8.38707 -16.65038,13.85158 -9.88871,11.60667 -5.69946,29.48245 3.45898,40.05077 9.46685,10.92431 20.62162,9.68555 33.79098,9.68555 4.12864,0 10.27043,1.1217 13.88872,-1.20508 5.5224,-3.55116 9.1198,-12.18923 11.16208,-18.1465 5.73115,4.97304 11.08202,15.19559 17.46096,18.64065 1.18136,0.638 2.68765,0.99918 4.332,1.22265 h 10.40625 c 2.93606,-0.22447 6.04291,-0.51172 8.16015,-0.51172 -6.67548,-23.01584 -32.51641,-51.4713 -55.66793,-58.74806 v -1.3828 c 14.53426,-3.42099 30.65953,-12.4044 41.74998,-22.23633 6.83633,-6.06057 12.19586,-13.71666 19.48438,-19.23242 9.87911,30.15603 22.26844,61.1555 27.77733,92.6836 7.1238,-3.52569 13.69777,-7.94481 19.59572,-13.14259 -4.55426,-19.15343 -10.0661,-38.18385 -16.29102,-56.73241 -6.51208,-19.40433 -15.33544,-41.527075 -10.20702,-62.20314 l 22.26757,6.220703 c -2.44449,-18.015558 -11.24969,-36.548688 -16.68166,-53.91016 -11.23816,-35.919111 -21.51273,-73.66692 -37.59375,-107.820306 7.79248,-3.239467 15.85841,-8.708363 21.24805,-15.205077 13.98332,-16.85554 14.75894,-41.53559 2.10353,-59.43945 -13.89637,-19.65946 -44.72647,-22.54119 -62.3164,-6.15626 -5.33162,4.96642 -8.40378,11.28985 -11.13671,17.90626 -19.2429,-11.15537 -43.31305,-15.88193 -65.41017,-15.89649 z m -68.19338,43.54102 -16.70116,28.33789 c 26.73087,-14.1396 63.40808,-18.12974 92.54883,-10.79883 8.15458,2.05145 23.73571,5.45564 28.52929,12.87305 -24.33346,0.49896 -45.69687,10.82888 -62.62694,27.644532 29.84905,-9.646852 65.73736,-9.148312 88.25193,15.896486 14.73186,16.387418 19.5082,39.750185 25.88479,60.130858 7.07729,22.62019745 16.26531,44.065468 22.25,67.041021 l -12.52539,-4.146489 c 3.99802,31.421392 -11.66615,58.752465 -38.27149,75.300782 -7.8691,4.89452 -17.72674,10.2776 -27.13867,11.09374 0,-5.55445 0.86233,-11.90585 -0.72463,-17.27929 -8.49603,-28.767946 -45.51133,-20.042972 -68.16402,-20.042972 9.9e-4,-10.104526 6.79991,-7.818675 13.91599,-12.51366 8.84137,-5.833356 14.08191,-16.876925 9.17188,-26.882818 -2.19542,-4.473996 -5.92917,-8.642215 -10.56248,-10.691413 -5.61538,-2.483467 -12.11027,-1.748037 -18.09182,-1.748037 -14.60927,0 -36.83032,-0.587812 -38.20508,19.351564 -0.58509,8.485646 6.05113,16.631601 13.1543,20.517574 7.22938,3.954974 13.21965,2.444447 13.22072,11.96679 -15.26242,0 -30.67934,0.636011 -45.9258,-0.02727 -11.10002,-0.482763 -23.92203,-0.992187 -31.46094,9.039073 -4.98694,6.635579 -4.02735,15.673199 -4.02735,23.470689 -8.19674,-1.45126 -16.55656,-8.26696 -22.96286,-13.27734 -22.15741,-17.329285 -35.75139,-40.209701 -29.92188,-68.27727 l -12.52539,2.763667 c 2.12496,-16.343901 10.13669,-32.125477 15.30859,-47.6894565 7.30749,-21.9906375 12.30479,-44.8247955 22.79101,-65.6581985 5.67681,-11.278362 13.86958,-26.903825 25.91796,-32.484382 6.78145,11.540184 13.24921,22.935243 23.02541,32.367193 26.87267,25.926494 65.07821,34.574093 101.53319,34.673827 l -45.92771,-30.712889 -17.98243,-19.048829 -8.45901,-12.441406 2.08789,27.646486 c -14.45246,-8.258042 -35.28903,-28.800262 -34.03321,-46.998052 1.12434,-16.2924 21.6912,-27.5783 34.72854,-34.03711 4.38405,-2.1719 9.06333,-4.5291 13.91794,-5.35938 z m -35.49021,132.009772 c 5.79957,12.924503 23.46568,27.1991364 36.18554,33.1757747 -4.27292,-18.3363525 -19.06481,-28.3858807 -36.18554,-33.1757747 z m 116.20898,0 c -16.27535,2.178599 -33.67009,16.5080035 -36.18553,33.1757747 13.59656,-6.3886177 28.67739,-20.2597327 36.18553,-33.1757747 z m -143.06641,19.3632763 c -0.99599,0.041607 -2.01623,0.1360095 -3.06248,0.2851654 -33.99315,4.84775951 -25.32348,56.7454333 7.65426,52.0234393 32.77596,-4.693062 26.28431,-53.5974782 -4.59178,-52.3085872 z m 166.96679,0.027272 c -0.98342,0.032516 -1.99234,0.1160801 -3.02537,0.2558657 -5.55955,0.7520381 -10.99192,2.2439819 -15.28126,6.072282 -18.55591,16.561324 -1.45063,49.026353 22.24025,45.96093 32.95952,-4.264667 26.55326,-53.2941144 -3.93362,-52.2890602 z M -671.47936,20.51317 c 10.22616,-0.329989 13.93251,15.042511 2.73827,17.609366 -10.91184,2.502138 -15.76879,-14.811801 -4.8672,-17.326176 0.73724,-0.170099 1.44718,-0.261197 2.12893,-0.28319 z m 159.32614,0.02343 c 10.12013,-0.06748 13.78027,15.186894 2.7637,17.578126 -11.04083,2.396512 -15.99741,-15.078645 -4.87108,-17.35156 0.72962,-0.149121 1.43273,-0.222055 2.10738,-0.226548 z"
         sodipodi:nodetypes="ccssccccscccscccscccccssssssssssssscssscscccccscccsccscssscccccsccssccscscssssssccscsccsscccccccssccccccccscssssssssssssssssss" /></mask><clipPath
       clipPathUnits="userSpaceOnUse"
       id="clipPath216"><path
         id="path216"
         style="fill:#000000;fill-opacity:1;stroke:none;stroke-width:1.2066;stroke-linecap:round;stroke-linejoin:round;stroke-dasharray:none;stroke-dashoffset:85.3039;stroke-opacity:1"
         d="m -544.87781,-199.95161 c -46.17657,0 -96.54089,24.00875 -128.73241,55.98243 -2.47287,-7.68115 -4.74916,-15.18998 -10.26954,-21.36328 -17.36266,-19.41627 -51.19317,-17.42493 -65.75392,4.08398 -17.88351,26.41723 -4.93889,61.99176 23.83401,73.953127 l -40.6543,118.87891 -12.23048,43.541009 22.26758,-6.910156 c 4.42311,18.452835 -2.50499,39.25265 -8.35158,56.67383 -6.68043,19.90595 -14.64291,40.913 -19.91407,61.91797 6.70828,5.97956 14.29527,10.96551 22.58597,14.74025 0.034,-0.18578 0.076,-0.46649 0.11111,-0.63087 1.3982,-6.4839 3.09341,-12.94038 4.79106,-19.35352 6.51284,-24.60351 9.8468,-50.87068 22.34761,-73.26173 h 0.69532 c 12.79198,18.03701 32.99895,27.87151 51.49414,38.70509 -14.35195,4.552 -25.89312,11.51839 -36.12695,22.80664 -2.17583,2.40004 -5.80577,5.42187 -8.78887,9.66069 -6.1279,9.22755 -12.71664,17.7222 -16.40838,28.12642 3.21778,0.69941 6.48617,1.26076 9.82421,1.60938 h 14.61914 c 2.25215,-8.11312 8.82237,-13.5997 14.61328,-19.35158 2.05658,5.99888 6.08754,15.3153 11.94728,18.53714 3.86815,2.12683 10.88031,0.81444 15.19139,0.81444 5.50889,0 13.59349,1.48398 18.78713,-0.41797 7.73023,-2.8309 18.4916,-16.09693 21.05078,-23.77149 3.87228,-11.61238 -0.8084,-23.89398 -9.91604,-31.64843 -2.99107,-2.5467 -9.07796,-3.98162 -11.11521,-7.24611 -1.33976,-2.1468 -0.71485,-5.69213 -0.71485,-8.10546 0,-6.02711 -1.77506,-12.73184 -0.32429,-18.66016 2.71688,-11.1018 16.27249,-8.68917 24.67967,-8.32032 23.15176,1.01581 46.37798,0.71682 69.58396,0.71682 7.5825,0 19.89952,-3.58111 26.41216,1.14256 7.0277,5.09732 3.8587,16.44633 3.53708,23.74023 -0.13041,2.95634 0.54733,6.35548 -1.14256,8.98243 -3.92232,6.0973 -11.9948,8.38707 -16.65038,13.85158 -9.88871,11.60667 -5.69946,29.48245 3.45898,40.05077 9.46685,10.92431 20.62162,9.68555 33.79098,9.68555 4.12864,0 10.27043,1.1217 13.88872,-1.20508 5.5224,-3.55116 9.1198,-12.18923 11.16208,-18.1465 5.73115,4.97304 11.08202,15.19559 17.46096,18.64065 1.18136,0.638 2.68765,0.99918 4.332,1.22265 h 10.40625 c 2.93606,-0.22447 6.04291,-0.51172 8.16015,-0.51172 -6.67548,-23.01584 -32.51641,-51.4713 -55.66793,-58.74806 v -1.3828 c 14.53426,-3.42099 30.65953,-12.4044 41.74998,-22.23633 6.83633,-6.06057 12.19586,-13.71666 19.48438,-19.23242 9.87911,30.15603 22.26844,61.1555 27.77733,92.6836 7.1238,-3.52569 13.69777,-7.94481 19.59572,-13.14259 -4.55426,-19.15343 -10.0661,-38.18385 -16.29102,-56.73241 -6.51208,-19.40433 -15.33544,-41.527075 -10.20702,-62.20314 l 22.26757,6.220703 c -2.44449,-18.015558 -11.24969,-36.548688 -16.68166,-53.91016 -11.23816,-35.919111 -21.51273,-73.66692 -37.59375,-107.820306 7.79248,-3.239467 15.85841,-8.708363 21.24805,-15.205077 13.98332,-16.85554 14.75894,-41.53559 2.10353,-59.43945 -13.89637,-19.65946 -44.72647,-22.54119 -62.3164,-6.15626 -5.33162,4.96642 -8.40378,11.28985 -11.13671,17.90626 -19.2429,-11.15537 -43.31305,-15.88193 -65.41017,-15.89649 z m -68.19338,43.54102 -16.70116,28.33789 c 26.73087,-14.1396 63.40808,-18.12974 92.54883,-10.79883 8.15458,2.05145 23.73571,5.45564 28.52929,12.87305 -24.33346,0.49896 -45.69687,10.82888 -62.62694,27.644532 29.84905,-9.646852 65.73736,-9.148312 88.25193,15.896486 14.73186,16.387418 19.5082,39.750185 25.88479,60.130858 7.07729,22.62019745 16.26531,44.065468 22.25,67.041021 l -12.52539,-4.146489 c 3.99802,31.421392 -11.66615,58.752465 -38.27149,75.300782 -7.8691,4.89452 -17.72674,10.2776 -27.13867,11.09374 0,-5.55445 0.86233,-11.90585 -0.72463,-17.27929 -8.49603,-28.767946 -45.51133,-20.042972 -68.16402,-20.042972 9.9e-4,-10.104526 6.79991,-7.818675 13.91599,-12.51366 8.84137,-5.833356 14.08191,-16.876925 9.17188,-26.882818 -2.19542,-4.473996 -5.92917,-8.642215 -10.56248,-10.691413 -5.61538,-2.483467 -12.11027,-1.748037 -18.09182,-1.748037 -14.60927,0 -36.83032,-0.587812 -38.20508,19.351564 -0.58509,8.485646 6.05113,16.631601 13.1543,20.517574 7.22938,3.954974 13.21965,2.444447 13.22072,11.96679 -15.26242,0 -30.67934,0.636011 -45.9258,-0.02727 -11.10002,-0.482763 -23.92203,-0.992187 -31.46094,9.039073 -4.98694,6.635579 -4.02735,15.673199 -4.02735,23.470689 -8.19674,-1.45126 -16.55656,-8.26696 -22.96286,-13.27734 -22.15741,-17.329285 -35.75139,-40.209701 -29.92188,-68.27727 l -12.52539,2.763667 c 2.12496,-16.343901 10.13669,-32.125477 15.30859,-47.6894565 7.30749,-21.9906375 12.30479,-44.8247955 22.79101,-65.6581985 5.67681,-11.278362 13.86958,-26.903825 25.91796,-32.484382 6.78145,11.540184 13.24921,22.935243 23.02541,32.367193 26.87267,25.926494 65.07821,34.574093 101.53319,34.673827 l -45.92771,-30.712889 -17.98243,-19.048829 -8.45901,-12.441406 2.08789,27.646486 c -14.45246,-8.258042 -35.28903,-28.800262 -34.03321,-46.998052 1.12434,-16.2924 21.6912,-27.5783 34.72854,-34.03711 4.38405,-2.1719 9.06333,-4.5291 13.91794,-5.35938 z m -35.49021,132.009772 c 5.79957,12.924503 23.46568,27.1991364 36.18554,33.1757747 -4.27292,-18.3363525 -19.06481,-28.3858807 -36.18554,-33.1757747 z m 116.20898,0 c -16.27535,2.178599 -33.67009,16.5080035 -36.18553,33.1757747 13.59656,-6.3886177 28.67739,-20.2597327 36.18553,-33.1757747 z m -143.06641,19.3632763 c -0.99599,0.041607 -2.01623,0.1360095 -3.06248,0.2851654 -33.99315,4.84775951 -25.32348,56.7454333 7.65426,52.0234393 32.77596,-4.693062 26.28431,-53.5974782 -4.59178,-52.3085872 z m 166.96679,0.027272 c -0.98342,0.032516 -1.99234,0.1160801 -3.02537,0.2558657 -5.55955,0.7520381 -10.99192,2.2439819 -15.28126,6.072282 -18.55591,16.561324 -1.45063,49.026353 22.24025,45.96093 32.95952,-4.264667 26.55326,-53.2941144 -3.93362,-52.2890602 z M -671.47936,20.51317 c 10.22616,-0.329989 13.93251,15.042511 2.73827,17.609366 -10.91184,2.502138 -15.76879,-14.811801 -4.8672,-17.326176 0.73724,-0.170099 1.44718,-0.261197 2.12893,-0.28319 z m 159.32614,0.02343 c 10.12013,-0.06748 13.78027,15.186894 2.7637,17.578126 -11.04083,2.396512 -15.99741,-15.078645 -4.87108,-17.35156 0.72962,-0.149121 1.43273,-0.222055 2.10738,-0.226548 z"
         sodipodi:nodetypes="ccssccccscccscccscccccssssssssssssscssscscccccscccsccscssscccccsccssccscscssssssccscsccsscccccccssccccccccscssssssssssssssssss" /></clipPath><clipPath
       clipPathUnits="userSpaceOnUse"
       id="clipPath216-0"><path
         id="path216-7"
         style="fill:#000000;fill-opacity:1;stroke:none;stroke-width:1.2066;stroke-linecap:round;stroke-linejoin:round;stroke-dasharray:none;stroke-dashoffset:85.3039;stroke-opacity:1"
         d="m -544.87781,-199.95161 c -46.17657,0 -96.54089,24.00875 -128.73241,55.98243 -2.47287,-7.68115 -4.74916,-15.18998 -10.26954,-21.36328 -17.36266,-19.41627 -51.19317,-17.42493 -65.75392,4.08398 -17.88351,26.41723 -4.93889,61.99176 23.83401,73.953127 l -40.6543,118.87891 -12.23048,43.541009 22.26758,-6.910156 c 4.42311,18.452835 -2.50499,39.25265 -8.35158,56.67383 -6.68043,19.90595 -14.64291,40.913 -19.91407,61.91797 6.70828,5.97956 14.29527,10.96551 22.58597,14.74025 0.034,-0.18578 0.076,-0.46649 0.11111,-0.63087 1.3982,-6.4839 3.09341,-12.94038 4.79106,-19.35352 6.51284,-24.60351 9.8468,-50.87068 22.34761,-73.26173 h 0.69532 c 12.79198,18.03701 32.99895,27.87151 51.49414,38.70509 -14.35195,4.552 -25.89312,11.51839 -36.12695,22.80664 -2.17583,2.40004 -5.80577,5.42187 -8.78887,9.66069 -6.1279,9.22755 -12.71664,17.7222 -16.40838,28.12642 3.21778,0.69941 6.48617,1.26076 9.82421,1.60938 h 14.61914 c 2.25215,-8.11312 8.82237,-13.5997 14.61328,-19.35158 2.05658,5.99888 6.08754,15.3153 11.94728,18.53714 3.86815,2.12683 10.88031,0.81444 15.19139,0.81444 5.50889,0 13.59349,1.48398 18.78713,-0.41797 7.73023,-2.8309 18.4916,-16.09693 21.05078,-23.77149 3.87228,-11.61238 -0.8084,-23.89398 -9.91604,-31.64843 -2.99107,-2.5467 -9.07796,-3.98162 -11.11521,-7.24611 -1.33976,-2.1468 -0.71485,-5.69213 -0.71485,-8.10546 0,-6.02711 -1.77506,-12.73184 -0.32429,-18.66016 2.71688,-11.1018 16.27249,-8.68917 24.67967,-8.32032 23.15176,1.01581 46.37798,0.71682 69.58396,0.71682 7.5825,0 19.89952,-3.58111 26.41216,1.14256 7.0277,5.09732 3.8587,16.44633 3.53708,23.74023 -0.13041,2.95634 0.54733,6.35548 -1.14256,8.98243 -3.92232,6.0973 -11.9948,8.38707 -16.65038,13.85158 -9.88871,11.60667 -5.69946,29.48245 3.45898,40.05077 9.46685,10.92431 20.62162,9.68555 33.79098,9.68555 4.12864,0 10.27043,1.1217 13.88872,-1.20508 5.5224,-3.55116 9.1198,-12.18923 11.16208,-18.1465 5.73115,4.97304 11.08202,15.19559 17.46096,18.64065 1.18136,0.638 2.68765,0.99918 4.332,1.22265 h 10.40625 c 2.93606,-0.22447 6.04291,-0.51172 8.16015,-0.51172 -6.67548,-23.01584 -32.51641,-51.4713 -55.66793,-58.74806 v -1.3828 c 14.53426,-3.42099 30.65953,-12.4044 41.74998,-22.23633 6.83633,-6.06057 12.19586,-13.71666 19.48438,-19.23242 9.87911,30.15603 22.26844,61.1555 27.77733,92.6836 7.1238,-3.52569 13.69777,-7.94481 19.59572,-13.14259 -4.55426,-19.15343 -10.0661,-38.18385 -16.29102,-56.73241 -6.51208,-19.40433 -15.33544,-41.527075 -10.20702,-62.20314 l 22.26757,6.220703 c -2.44449,-18.015558 -11.24969,-36.548688 -16.68166,-53.91016 -11.23816,-35.919111 -21.51273,-73.66692 -37.59375,-107.820306 7.79248,-3.239467 15.85841,-8.708363 21.24805,-15.205077 13.98332,-16.85554 14.75894,-41.53559 2.10353,-59.43945 -13.89637,-19.65946 -44.72647,-22.54119 -62.3164,-6.15626 -5.33162,4.96642 -8.40378,11.28985 -11.13671,17.90626 -19.2429,-11.15537 -43.31305,-15.88193 -65.41017,-15.89649 z m -68.19338,43.54102 -16.70116,28.33789 c 26.73087,-14.1396 63.40808,-18.12974 92.54883,-10.79883 8.15458,2.05145 23.73571,5.45564 28.52929,12.87305 -24.33346,0.49896 -45.69687,10.82888 -62.62694,27.644532 29.84905,-9.646852 65.73736,-9.148312 88.25193,15.896486 14.73186,16.387418 19.5082,39.750185 25.88479,60.130858 7.07729,22.62019745 16.26531,44.065468 22.25,67.041021 l -12.52539,-4.146489 c 3.99802,31.421392 -11.66615,58.752465 -38.27149,75.300782 -7.8691,4.89452 -17.72674,10.2776 -27.13867,11.09374 0,-5.55445 0.86233,-11.90585 -0.72463,-17.27929 -8.49603,-28.767946 -45.51133,-20.042972 -68.16402,-20.042972 9.9e-4,-10.104526 6.79991,-7.818675 13.91599,-12.51366 8.84137,-5.833356 14.08191,-16.876925 9.17188,-26.882818 -2.19542,-4.473996 -5.92917,-8.642215 -10.56248,-10.691413 -5.61538,-2.483467 -12.11027,-1.748037 -18.09182,-1.748037 -14.60927,0 -36.83032,-0.587812 -38.20508,19.351564 -0.58509,8.485646 6.05113,16.631601 13.1543,20.517574 7.22938,3.954974 13.21965,2.444447 13.22072,11.96679 -15.26242,0 -30.67934,0.636011 -45.9258,-0.02727 -11.10002,-0.482763 -23.92203,-0.992187 -31.46094,9.039073 -4.98694,6.635579 -4.02735,15.673199 -4.02735,23.470689 -8.19674,-1.45126 -16.55656,-8.26696 -22.96286,-13.27734 -22.15741,-17.329285 -35.75139,-40.209701 -29.92188,-68.27727 l -12.52539,2.763667 c 2.12496,-16.343901 10.13669,-32.125477 15.30859,-47.6894565 7.30749,-21.9906375 12.30479,-44.8247955 22.79101,-65.6581985 5.67681,-11.278362 13.86958,-26.903825 25.91796,-32.484382 6.78145,11.540184 13.24921,22.935243 23.02541,32.367193 26.87267,25.926494 65.07821,34.574093 101.53319,34.673827 l -45.92771,-30.712889 -17.98243,-19.048829 -8.45901,-12.441406 2.08789,27.646486 c -14.45246,-8.258042 -35.28903,-28.800262 -34.03321,-46.998052 1.12434,-16.2924 21.6912,-27.5783 34.72854,-34.03711 4.38405,-2.1719 9.06333,-4.5291 13.91794,-5.35938 z m -35.49021,132.009772 c 5.79957,12.924503 23.46568,27.1991364 36.18554,33.1757747 -4.27292,-18.3363525 -19.06481,-28.3858807 -36.18554,-33.1757747 z m 116.20898,0 c -16.27535,2.178599 -33.67009,16.5080035 -36.18553,33.1757747 13.59656,-6.3886177 28.67739,-20.2597327 36.18553,-33.1757747 z m -143.06641,19.3632763 c -0.99599,0.041607 -2.01623,0.1360095 -3.06248,0.2851654 -33.99315,4.84775951 -25.32348,56.7454333 7.65426,52.0234393 32.77596,-4.693062 26.28431,-53.5974782 -4.59178,-52.3085872 z m 166.96679,0.027272 c -0.98342,0.032516 -1.99234,0.1160801 -3.02537,0.2558657 -5.55955,0.7520381 -10.99192,2.2439819 -15.28126,6.072282 -18.55591,16.561324 -1.45063,49.026353 22.24025,45.96093 32.95952,-4.264667 26.55326,-53.2941144 -3.93362,-52.2890602 z M -671.47936,20.51317 c 10.22616,-0.329989 13.93251,15.042511 2.73827,17.609366 -10.91184,2.502138 -15.76879,-14.811801 -4.8672,-17.326176 0.73724,-0.170099 1.44718,-0.261197 2.12893,-0.28319 z m 159.32614,0.02343 c 10.12013,-0.06748 13.78027,15.186894 2.7637,17.578126 -11.04083,2.396512 -15.99741,-15.078645 -4.87108,-17.35156 0.72962,-0.149121 1.43273,-0.222055 2.10738,-0.226548 z"
         sodipodi:nodetypes="ccssccccscccscccscccccssssssssssssscssscscccccscccsccscssscccccsccssccscscssssssccscsccsscccccccssccccccccscssssssssssssssssss" /></clipPath><mask
       maskUnits="userSpaceOnUse"
       id="mask213-7"><path
         id="path213-4"
         style="fill:#000000;fill-opacity:1;stroke:none;stroke-width:1.2066;stroke-linecap:round;stroke-linejoin:round;stroke-dasharray:none;stroke-dashoffset:85.3039;stroke-opacity:1"
         d="m -544.87781,-199.95161 c -46.17657,0 -96.54089,24.00875 -128.73241,55.98243 -2.47287,-7.68115 -4.74916,-15.18998 -10.26954,-21.36328 -17.36266,-19.41627 -51.19317,-17.42493 -65.75392,4.08398 -17.88351,26.41723 -4.93889,61.99176 23.83401,73.953127 l -40.6543,118.87891 -12.23048,43.541009 22.26758,-6.910156 c 4.42311,18.452835 -2.50499,39.25265 -8.35158,56.67383 -6.68043,19.90595 -14.64291,40.913 -19.91407,61.91797 6.70828,5.97956 14.29527,10.96551 22.58597,14.74025 0.034,-0.18578 0.076,-0.46649 0.11111,-0.63087 1.3982,-6.4839 3.09341,-12.94038 4.79106,-19.35352 6.51284,-24.60351 9.8468,-50.87068 22.34761,-73.26173 h 0.69532 c 12.79198,18.03701 32.99895,27.87151 51.49414,38.70509 -14.35195,4.552 -25.89312,11.51839 -36.12695,22.80664 -2.17583,2.40004 -5.80577,5.42187 -8.78887,9.66069 -6.1279,9.22755 -12.71664,17.7222 -16.40838,28.12642 3.21778,0.69941 6.48617,1.26076 9.82421,1.60938 h 14.61914 c 2.25215,-8.11312 8.82237,-13.5997 14.61328,-19.35158 2.05658,5.99888 6.08754,15.3153 11.94728,18.53714 3.86815,2.12683 10.88031,0.81444 15.19139,0.81444 5.50889,0 13.59349,1.48398 18.78713,-0.41797 7.73023,-2.8309 18.4916,-16.09693 21.05078,-23.77149 3.87228,-11.61238 -0.8084,-23.89398 -9.91604,-31.64843 -2.99107,-2.5467 -9.07796,-3.98162 -11.11521,-7.24611 -1.33976,-2.1468 -0.71485,-5.69213 -0.71485,-8.10546 0,-6.02711 -1.77506,-12.73184 -0.32429,-18.66016 2.71688,-11.1018 16.27249,-8.68917 24.67967,-8.32032 23.15176,1.01581 46.37798,0.71682 69.58396,0.71682 7.5825,0 19.89952,-3.58111 26.41216,1.14256 7.0277,5.09732 3.8587,16.44633 3.53708,23.74023 -0.13041,2.95634 0.54733,6.35548 -1.14256,8.98243 -3.92232,6.0973 -11.9948,8.38707 -16.65038,13.85158 -9.88871,11.60667 -5.69946,29.48245 3.45898,40.05077 9.46685,10.92431 20.62162,9.68555 33.79098,9.68555 4.12864,0 10.27043,1.1217 13.88872,-1.20508 5.5224,-3.55116 9.1198,-12.18923 11.16208,-18.1465 5.73115,4.97304 11.08202,15.19559 17.46096,18.64065 1.18136,0.638 2.68765,0.99918 4.332,1.22265 h 10.40625 c 2.93606,-0.22447 6.04291,-0.51172 8.16015,-0.51172 -6.67548,-23.01584 -32.51641,-51.4713 -55.66793,-58.74806 v -1.3828 c 14.53426,-3.42099 30.65953,-12.4044 41.74998,-22.23633 6.83633,-6.06057 12.19586,-13.71666 19.48438,-19.23242 9.87911,30.15603 22.26844,61.1555 27.77733,92.6836 7.1238,-3.52569 13.69777,-7.94481 19.59572,-13.14259 -4.55426,-19.15343 -10.0661,-38.18385 -16.29102,-56.73241 -6.51208,-19.40433 -15.33544,-41.527075 -10.20702,-62.20314 l 22.26757,6.220703 c -2.44449,-18.015558 -11.24969,-36.548688 -16.68166,-53.91016 -11.23816,-35.919111 -21.51273,-73.66692 -37.59375,-107.820306 7.79248,-3.239467 15.85841,-8.708363 21.24805,-15.205077 13.98332,-16.85554 14.75894,-41.53559 2.10353,-59.43945 -13.89637,-19.65946 -44.72647,-22.54119 -62.3164,-6.15626 -5.33162,4.96642 -8.40378,11.28985 -11.13671,17.90626 -19.2429,-11.15537 -43.31305,-15.88193 -65.41017,-15.89649 z m -68.19338,43.54102 -16.70116,28.33789 c 26.73087,-14.1396 63.40808,-18.12974 92.54883,-10.79883 8.15458,2.05145 23.73571,5.45564 28.52929,12.87305 -24.33346,0.49896 -45.69687,10.82888 -62.62694,27.644532 29.84905,-9.646852 65.73736,-9.148312 88.25193,15.896486 14.73186,16.387418 19.5082,39.750185 25.88479,60.130858 7.07729,22.62019745 16.26531,44.065468 22.25,67.041021 l -12.52539,-4.146489 c 3.99802,31.421392 -11.66615,58.752465 -38.27149,75.300782 -7.8691,4.89452 -17.72674,10.2776 -27.13867,11.09374 0,-5.55445 0.86233,-11.90585 -0.72463,-17.27929 -8.49603,-28.767946 -45.51133,-20.042972 -68.16402,-20.042972 9.9e-4,-10.104526 6.79991,-7.818675 13.91599,-12.51366 8.84137,-5.833356 14.08191,-16.876925 9.17188,-26.882818 -2.19542,-4.473996 -5.92917,-8.642215 -10.56248,-10.691413 -5.61538,-2.483467 -12.11027,-1.748037 -18.09182,-1.748037 -14.60927,0 -36.83032,-0.587812 -38.20508,19.351564 -0.58509,8.485646 6.05113,16.631601 13.1543,20.517574 7.22938,3.954974 13.21965,2.444447 13.22072,11.96679 -15.26242,0 -30.67934,0.636011 -45.9258,-0.02727 -11.10002,-0.482763 -23.92203,-0.992187 -31.46094,9.039073 -4.98694,6.635579 -4.02735,15.673199 -4.02735,23.470689 -8.19674,-1.45126 -16.55656,-8.26696 -22.96286,-13.27734 -22.15741,-17.329285 -35.75139,-40.209701 -29.92188,-68.27727 l -12.52539,2.763667 c 2.12496,-16.343901 10.13669,-32.125477 15.30859,-47.6894565 7.30749,-21.9906375 12.30479,-44.8247955 22.79101,-65.6581985 5.67681,-11.278362 13.86958,-26.903825 25.91796,-32.484382 6.78145,11.540184 13.24921,22.935243 23.02541,32.367193 26.87267,25.926494 65.07821,34.574093 101.53319,34.673827 l -45.92771,-30.712889 -17.98243,-19.048829 -8.45901,-12.441406 2.08789,27.646486 c -14.45246,-8.258042 -35.28903,-28.800262 -34.03321,-46.998052 1.12434,-16.2924 21.6912,-27.5783 34.72854,-34.03711 4.38405,-2.1719 9.06333,-4.5291 13.91794,-5.35938 z m -35.49021,132.009772 c 5.79957,12.924503 23.46568,27.1991364 36.18554,33.1757747 -4.27292,-18.3363525 -19.06481,-28.3858807 -36.18554,-33.1757747 z m 116.20898,0 c -16.27535,2.178599 -33.67009,16.5080035 -36.18553,33.1757747 13.59656,-6.3886177 28.67739,-20.2597327 36.18553,-33.1757747 z m -143.06641,19.3632763 c -0.99599,0.041607 -2.01623,0.1360095 -3.06248,0.2851654 -33.99315,4.84775951 -25.32348,56.7454333 7.65426,52.0234393 32.77596,-4.693062 26.28431,-53.5974782 -4.59178,-52.3085872 z m 166.96679,0.027272 c -0.98342,0.032516 -1.99234,0.1160801 -3.02537,0.2558657 -5.55955,0.7520381 -10.99192,2.2439819 -15.28126,6.072282 -18.55591,16.561324 -1.45063,49.026353 22.24025,45.96093 32.95952,-4.264667 26.55326,-53.2941144 -3.93362,-52.2890602 z M -671.47936,20.51317 c 10.22616,-0.329989 13.93251,15.042511 2.73827,17.609366 -10.91184,2.502138 -15.76879,-14.811801 -4.8672,-17.326176 0.73724,-0.170099 1.44718,-0.261197 2.12893,-0.28319 z m 159.32614,0.02343 c 10.12013,-0.06748 13.78027,15.186894 2.7637,17.578126 -11.04083,2.396512 -15.99741,-15.078645 -4.87108,-17.35156 0.72962,-0.149121 1.43273,-0.222055 2.10738,-0.226548 z"
         sodipodi:nodetypes="ccssccccscccscccscccccssssssssssssscssscscccccscccsccscssscccccsccssccscscssssssccscsccsscccccccssccccccccscssssssssssssssssss" /></mask><clipPath
       clipPathUnits="userSpaceOnUse"
       id="clipPath218"><path
         id="path219"
         style="fill:#000000;fill-opacity:1;stroke:none;stroke-width:0.690198;stroke-linecap:round;stroke-linejoin:round;stroke-dasharray:none;stroke-dashoffset:85.3039;stroke-opacity:1"
         d="m 517.10224,391.18714 c -26.41386,0 -55.22321,13.73346 -73.63736,32.023 -1.41453,-4.39376 -2.71661,-8.68895 -5.87437,-12.2202 -9.93177,-11.10647 -29.28346,-9.96738 -37.61249,2.33612 -10.2297,15.11115 -2.82514,35.46046 13.63351,42.30258 l -23.25503,68.00099 -6.99607,24.90628 12.73748,-3.95274 c 2.5301,10.55537 -1.4329,22.45326 -4.77726,32.4185 -3.82133,11.38657 -8.37602,23.40301 -11.39123,35.41825 3.83727,3.42042 8.17717,6.27247 12.91961,8.43169 0.0194,-0.10626 0.0435,-0.26683 0.0635,-0.36086 0.7998,-3.70891 1.76949,-7.40214 2.74057,-11.07058 3.72547,-14.07367 5.63256,-29.099 12.78326,-41.90709 h 0.39774 c 7.31725,10.31751 18.87602,15.94303 29.45562,22.14004 -8.20959,2.60382 -14.81136,6.58874 -20.6653,13.04583 -1.24462,1.37287 -3.32101,3.10141 -5.0274,5.5261 -3.50528,5.27832 -7.27416,10.13743 -9.3859,16.08884 1.84063,0.40008 3.71021,0.72118 5.61963,0.92059 h 8.36242 c 1.28827,-4.64086 5.04656,-7.77929 8.35907,-11.06946 1.17641,3.43147 3.48219,8.76064 6.83407,10.60358 2.21267,1.2166 6.22375,0.46588 8.68977,0.46588 3.15119,0 7.77573,0.84886 10.74659,-0.23908 4.42184,-1.61933 10.57754,-9.20776 12.04145,-13.59775 2.21501,-6.6425 -0.46242,-13.66781 -5.67217,-18.1035 -1.71095,-1.45676 -5.19277,-2.27755 -6.35811,-4.1449 -0.76637,-1.22802 -0.40891,-3.25601 -0.40891,-4.63648 0,-3.44762 -1.01537,-7.28285 -0.1855,-10.67396 1.55411,-6.35044 9.30818,-4.97038 14.11724,-4.75938 13.24325,0.58106 26.52909,0.41002 39.80335,0.41002 4.33733,0 11.3829,-2.04845 15.10824,0.65358 4.01999,2.91576 2.20725,9.4076 2.02328,13.57986 -0.0746,1.69108 0.31308,3.63544 -0.65357,5.13811 -2.24364,3.48778 -6.86125,4.79757 -9.52433,7.92336 -5.65653,6.63925 -3.26019,16.86452 1.9786,22.90981 5.41522,6.2489 11.79596,5.54031 19.32908,5.54031 2.36166,0 5.87488,0.64163 7.94461,-0.68933 3.15893,-2.03132 5.2167,-6.97247 6.38492,-10.38013 3.27833,2.84466 6.33913,8.69216 9.988,10.66279 0.67576,0.36496 1.53739,0.57156 2.47799,0.69939 h 5.95257 c 1.67948,-0.1284 3.45666,-0.29272 4.66776,-0.29272 -3.8185,-13.1655 -18.6,-29.44255 -31.84311,-33.60499 v -0.79099 c 8.31387,-1.95688 17.53783,-7.09555 23.88178,-12.71961 3.91051,-3.46676 6.97626,-7.84618 11.14543,-11.0013 5.65104,17.24982 12.73797,34.98209 15.88916,53.01676 4.07495,-2.01675 7.83538,-4.54457 11.20912,-7.5178 -2.60512,-10.95612 -5.758,-21.84188 -9.31877,-32.45202 -3.72503,-11.09964 -8.77216,-23.75427 -5.83861,-35.58136 l 12.73747,3.55836 c -1.39829,-10.30525 -6.43503,-20.90655 -9.54222,-30.83763 -6.42844,-20.54641 -12.30569,-42.13888 -21.50434,-61.67526 4.45745,-1.85303 9.07131,-4.98134 12.15429,-8.69759 7.99872,-9.64168 8.44239,-23.75914 1.20326,-34.00049 -7.94899,-11.24558 -25.58439,-12.89398 -35.64616,-3.52149 -3.04979,2.84088 -4.80712,6.458 -6.37041,10.24272 -11.0073,-6.38109 -24.77588,-9.08477 -37.41585,-9.0931 z m -39.00789,24.90628 -9.55339,16.20981 c 15.29056,-8.08812 36.27062,-10.37055 52.93968,-6.17713 4.66457,1.17346 13.57727,3.12073 16.31929,7.36362 -13.9192,0.28542 -26.13947,6.19433 -35.82378,15.8132 17.07421,-5.51818 37.60301,-5.23301 50.48176,9.09309 8.4269,9.37391 11.15906,22.73785 14.80659,34.39599 4.04834,12.93917 9.30406,25.20628 12.72742,38.34872 l -7.16476,-2.37186 c 2.28694,17.97363 -6.67326,33.60752 -21.89202,43.07347 -4.50127,2.79976 -10.14003,5.87897 -15.52383,6.34583 0,-3.17726 0.49327,-6.81038 -0.41449,-9.88408 -4.8599,-16.45582 -26.03334,-11.46496 -38.99112,-11.46496 5.7e-4,-5.77999 3.88969,-4.47243 7.96021,-7.15806 5.05743,-3.33678 8.05512,-9.65392 5.24649,-15.37747 -1.25581,-2.55921 -3.39159,-4.94351 -6.04194,-6.11569 -3.21209,-1.4206 -6.92729,-0.99992 -10.34885,-0.99992 -8.35678,0 -21.06764,-0.33623 -21.85404,11.06946 -0.33467,4.85395 3.46137,9.5136 7.52452,11.73645 4.13533,2.26232 7.56189,1.39827 7.56249,6.84523 -8.73039,0 -17.54915,0.3638 -26.27042,-0.0156 -6.34942,-0.27614 -13.68385,-0.56754 -17.99625,5.17052 -2.85262,3.79569 -2.30372,8.96537 -2.30372,13.42568 -4.68869,-0.83015 -9.47066,-4.72886 -13.13519,-7.59488 -12.67445,-9.91272 -20.45047,-23.00076 -17.11588,-39.05594 l -7.16476,1.58088 c 1.21552,-9.34903 5.79838,-18.37638 8.75681,-27.27927 4.18002,-12.57907 7.03857,-25.64064 13.03688,-37.55773 3.24725,-6.45144 7.93367,-15.3895 14.82557,-18.58168 3.87911,6.6012 7.57879,13.11939 13.17096,18.51464 15.37168,14.83045 37.22597,19.77703 58.0789,19.83409 l -26.27152,-17.56836 -10.28629,-10.89629 -4.83871,-7.11672 1.19432,15.81432 c -8.26708,-4.72376 -20.18599,-16.4743 -19.46764,-26.88378 0.64314,-9.31956 12.40777,-15.77531 19.86537,-19.46987 2.50777,-1.24236 5.18441,-2.59073 7.96134,-3.06566 z m -20.30108,75.51208 c 3.31747,7.39306 13.42282,15.55842 20.69882,18.97718 -2.44419,-10.48875 -10.90544,-16.23727 -20.69882,-18.97718 z m 66.47373,0 c -9.30981,1.24621 -19.25993,9.44289 -20.6988,18.97718 7.77748,-3.65441 16.404,-11.58896 20.6988,-18.97718 z m -81.83668,11.07617 c -0.56973,0.0238 -1.15332,0.0778 -1.7518,0.16312 -19.44472,2.773 -14.48551,32.45946 4.37838,29.75839 18.74846,-2.68453 15.03512,-30.65877 -2.62658,-29.92151 z m 95.50815,0.0156 c -0.56254,0.0186 -1.13966,0.0664 -1.73057,0.14637 -3.18017,0.43017 -6.28759,1.28359 -8.74117,3.47345 -10.61433,9.47339 -0.82979,28.044 12.72184,26.29053 18.85347,-2.43948 15.18897,-30.48524 -2.2501,-29.91034 z m -93.2547,14.59989 c 5.84955,-0.18876 7.96966,8.60461 1.56634,10.0729 -6.24178,1.43126 -9.02004,-8.47264 -2.78413,-9.9109 0.42172,-0.0973 0.82782,-0.14941 1.21779,-0.162 z m 91.13755,0.0134 c 5.78891,-0.0386 7.88258,8.68719 1.58089,10.05502 -6.31556,1.37085 -9.15082,-8.62527 -2.78635,-9.92543 0.41736,-0.0853 0.81955,-0.12701 1.20546,-0.12958 z"
         sodipodi:nodetypes="ccssccccscccscccscccccssssssssssssscssscscccccscccsccscssscccccsccssccscscssssssccscsccsscccccccssccccccccscssssssssssssssssss" /></clipPath><clipPath
       clipPathUnits="userSpaceOnUse"
       id="clipPath21"><path
         style="fill:#ffffff"
         d="m 94.856202,284.10523 c 0,-1.82235 7.331018,-27.47718 11.523818,-40.32747 5.881,-18.0244 7.4436,-24.95883 7.4614,-33.11204 0.0166,-7.58299 0.32491,-7.44534 -9.23522,-4.1229 -2.0625,0.71678 -3.75,1.11136 -3.75,0.87684 0,-3.02714 23.40059,-74.93661 29.4802,-90.59196 0.4453,-1.14667 -0.25517,-1.97129 -2.44501,-2.87835 -18.85403,-7.8096 -19.93976,-39.097266 -1.65222,-47.612416 12.75627,-5.93965 29.37746,1.12467 32.12975,13.65576 0.85526,3.89398 1.3504,3.77404 8.06152,-1.95278 15.08594,-12.87333 39.56926,-23.43814 59.55711,-25.69951 6.13574,-0.69418 6.13574,-0.69418 -1.49384,8.88942 -8.55536,10.74648 -9.23701,9.5054 6.15224,11.20141 4.40489,0.48546 15.29974,3.8605 22.41016,6.9423 1.30322,0.56484 2.02597,-0.0421 3.09713,-2.60099 1.87481,-4.47867 8.67687,-10.45905 13.38218,-11.76564 27.71521,-7.69608 43.10796,30.55812 18.81445,46.757806 -6.49429,4.3306 -6.53959,2.66063 0.59354,21.88319 6.32847,17.05413 24.07542,72.45758 23.41978,73.11322 -0.19728,0.19728 -2.82381,-0.35795 -5.83675,-1.23383 -3.01293,-0.87588 -5.79997,-1.59251 -6.19343,-1.59251 -2.48367,0 0.51555,19.27872 5.43294,34.9224 4.85022,15.43 12.09025,42.32336 12.09025,44.90968 0,2.89333 -11.91271,1.39309 -12.56259,-1.58208 -3.7813,-17.31103 -15.15791,-55.25 -16.56759,-55.25 -0.44047,0 -3.91379,3.11293 -7.71848,6.91762 -5.48705,5.48705 -9.01443,7.94628 -17.05694,11.89181 -10.13932,4.9742 -10.13932,4.9742 -5.36686,7.73966 9.2284,5.34752 21.24582,18.59165 26.53465,28.51451 3.69318,6.92911 -8.62557,7.60191 -12.91346,0.84241 -4.82271,-7.6026 -9.69597,-10.64295 -10.73008,-6.52273 -2.65275,10.56939 -21.83593,12.40954 -30.8156,2.95599 -8.62442,-9.07955 -7.54735,-20.29101 2.62145,-27.28732 4.5755,-3.14804 4.5755,-3.14804 4.5755,-9.51821 0,-3.50359 0.24469,-7.00781 0.54375,-7.78715 2.0391,-5.3138 -0.74855,-5.80469 -34.54375,-6.0829 -32.30608,-0.26595 -35.42954,0.0469 -36.36975,3.64224 -0.97902,3.74378 0.55149,17.69407 1.94124,17.69407 5.1716,0 12.02418,11.51478 10.88064,18.28335 -2.95838,17.5105 -31.90752,23.61081 -36.93127,7.78235 -1.06301,-3.34924 -9.61852,4.6736 -10.74156,8.90202 -0.30468,1.14714 0.11207,0.71587 -5.7793,0.0323 -3.82434,-0.44375 -7,-0.3207 -7,-0.71267 0,-1.57663 8.87471,-14.83199 9.9845,-16.37835 0.25392,-0.35381 2.61457,-3.12977 6.3373,-6.87305 6.10915,-6.14287 11.58279,-9.82379 17.16443,-11.54277 1.60714,-0.49495 0.7877,-1.25206 -4.29343,-3.96687 -7.36594,-3.93556 -10.74743,-6.42878 -18.12455,-13.36349 -7.72323,-7.26005 -8.09527,-6.56557 -17.72513,33.0872 -4.79639,19.75 -4.79639,19.75 -11.56975,19.75 -3.725348,0 -6.773368,-0.3733 -6.773368,-0.82955 z M 261.55452,233.79874 c 15.65929,-7.36892 26.37159,-22.81841 26.4199,-38.10331 0.0155,-4.89392 0.36745,-6.79116 1.20182,-6.47799 6.89548,2.58814 6.94743,2.11948 1.47237,-13.28266 -1.66184,-4.675 -6.00748,-17.31695 -9.65697,-28.09322 -12.35746,-36.48926 -28.44964,-47.937737 -56.97972,-40.53714 -5.28013,1.36965 -5.28013,1.36965 -2.48589,-1.54691 4.24621,-4.43209 15.32578,-9.523526 23.83618,-10.953526 8.90604,-1.49648 9.10355,-1.9271 2.24399,-4.89251 -16.59882,-7.17571 -33.77239,-7.50429 -53.90636,-1.03136 -8.65636,2.78295 -8.65636,2.78295 -4.25,-4.09142 6.4875,-10.12116 4.93564,-10.59252 -8.43335,-2.56157 -28.84387,15.599165 -38.95525,36.241966 -47.69523,61.707656 -6.37614,18.57817 -6.05182,18.76299 -9.03716,27.63998 -6.44915,19.1767 -6.39924,18.76482 -2.1779,17.97289 3.25,-0.6097 3.25,-0.6097 3.25,7.13871 0,12.37256 7.97283,24.38871 22.71322,34.23196 7.4405,4.96858 7.78678,4.96788 7.78678,-0.0157 0,-12.51075 3.90982,-14.5009 27.75,-14.12513 18.25,0.28765 18.25,0.28765 18.25,-2.239 0,-2.07915 -0.67262,-2.70778 -3.79763,-3.54926 -18.95817,-5.10491 -12.34345,-24.0494 8.39841,-24.05294 22.61335,-0.004 27.88305,17.97704 7.14922,24.39406 -1.0649,0.32958 -1.75,1.53551 -1.75,3.08038 0,2.53877 0,2.53877 14.42054,2.28139 18.854,-0.33651 23.46775,2.55009 24.38694,15.25776 0.50307,6.95492 0.16287,6.89717 10.89084,1.84882 z M 149.74797,187.94166 c -7.44282,-7.82402 -6.07963,-19.94131 2.65389,-23.59041 7.81421,-3.26499 15.79922,-0.5896 19.60273,6.56792 7.52151,14.15412 -11.29502,28.54553 -22.25662,17.02249 z m 16.35341,-3.64566 c 1.6675,-3.65975 -0.42043,-7.36122 -4.15231,-7.36122 -2.80985,0 -6.09287,2.15873 -6.09287,4.00632 0,6.38426 7.71398,8.91029 10.24518,3.3549 z m 79.94668,5.61438 c -9.08348,-5.53806 -9.20614,-20.40229 -0.20746,-25.1408 12.93514,-6.81135 26.67363,6.54687 20.37799,19.81395 -3.15988,6.65896 -13.50466,9.39092 -20.17053,5.32685 z m 10.05332,-5.61438 c 1.6675,-3.65975 -0.42043,-7.36122 -4.15231,-7.36122 -5.06086,0 -7.7427,4.5375 -4.84287,8.19383 2.64794,3.33873 7.29039,2.90901 8.99518,-0.83261 z"
         id="path21"
         sodipodi:nodetypes="sscsssssssssssssssssssssssssssssssssssssssssssssssssssssssssssscsssssssscsssssssssssssssssssssss" /></clipPath></defs><g
     inkscape:label="Camada 1"
     inkscape:groupmode="layer"
     id="layer1"
     transform="translate(-78.356201,-29.955721)"><rect
       style="fill:#f9fafb;fill-opacity:1;stroke:none;stroke-width:0.690198;stroke-linecap:round;stroke-linejoin:round;stroke-dasharray:none;stroke-dashoffset:85.3039;stroke-opacity:1"
       id="rect244"
       width="255.99995"
       height="255.99995"
       x="199.8902"
       y="408.30978"
       rx="63.999996"
       clip-path="none"
       inkscape:export-filename="32x32.png"
       inkscape:export-xdpi="12"
       inkscape:export-ydpi="12"
       transform="translate(-121.53393,-378.35403)" /><rect
       style="fill:#111827;fill-opacity:1;stroke:none;stroke-width:0.690198;stroke-linecap:round;stroke-linejoin:round;stroke-dasharray:none;stroke-dashoffset:85.3039;stroke-opacity:1"
       id="rect251"
       width="255.99995"
       height="255.99995"
       x="78.356224"
       y="29.955744"
       rx="63.999996"
       clip-path="url(#clipPath21)" /><g
       id="g256"
       style="display:inline"><path
         style="fill:#ffe600;fill-opacity:1;stroke:none;stroke-width:3.86318"
         d="m 210.5588,257.28971 c -1.82825,2.29126 -1.54752,7.40253 0.46503,8.70782 2.7521,1.78498 15.29192,-8.44484 13.50287,-9.4318 -2.88127,-1.58954 -11.39097,-2.5056 -13.9679,0.72398"
         id="path206" /><path
         style="fill:#111827;fill-opacity:1;stroke:none;stroke-width:3.84908"
         d="m 188.10687,255.42571 c -0.44582,0.0634 -0.94642,0.12802 -1.44905,0.29761 -5.53368,1.86609 -9.753,2.94788 -4.03165,6.65609 4.049,2.62433 6.753,4.43927 11.45594,3.63417 0.58075,-0.0995 1.15096,-0.24849 1.69727,-0.43956 4.28889,-1.49997 7.10523,-5.58803 1.98623,-8.5577 -3.5755,-2.07425 -5.58464,-2.16958 -9.65874,-1.59061"
         id="path207"
         sodipodi:nodetypes="csssssc" /><path
         style="fill:#ffe600;fill-opacity:1;stroke:none;stroke-width:2.83706"
         d="m 208.57483,281.5886 c -1.46136,-2.28419 -0.84267,-6.90801 0.59515,-7.99081 4.67543,-3.52092 7.63064,-0.36327 12.49995,-0.36327 1.42987,0 4.89854,8.94423 3.49755,9.17828 -4.83559,0.80777 -6.06845,0.0367 -10.91451,0.0367 -1.58505,0 -4.27187,1.33713 -5.67814,-0.861"
         id="path208"
         sodipodi:nodetypes="csscsc" /><path
         style="fill:#080808;stroke:none;stroke-width:3.47849"
         d="m 192.69606,273.16883 c 2.78958,1.35787 5.82283,5.75116 2.74858,7.84177 -2.14945,1.46167 -7.88927,1.25604 -10.1363,0.14721 -4.7514,-2.34469 -1.83167,-6.12327 1.96485,-7.69687 1.86439,-0.77275 3.94023,-1.01375 5.42287,-0.29207"
         id="path209"
         sodipodi:nodetypes="cscsc" /><path
         style="fill:#111827;fill-opacity:1;stroke:none;stroke-width:4.5079"
         d="m 210.35815,246.61464 c -2.65564,-2.4788 -1.55423,-7.48467 1.19851,-8.5612 5.8132,-2.27339 8.08222,-0.31858 14.09826,-0.31479 2.07021,0.002 4.88443,-0.57338 6.57388,1.58617 2.57371,3.28977 0.12972,7.54442 -2.50403,8.15973 -5.18633,1.21151 -14.80542,3.25843 -19.31362,-0.82148 -0.0179,-0.0162 -0.0355,-0.0324 -0.053,-0.0487"
         id="path210"
         sodipodi:nodetypes="cscccsc" /><path
         style="fill:#48d22d;fill-opacity:1;stroke:none;stroke-width:3.98852"
         d="m 175.97978,238.90322 c -2.86228,2.06389 -2.3951,8.0614 0.51041,9.33783 2.17836,0.95698 4.65483,1.19954 7.20381,1.14475 3.85613,-0.0828 7.87819,-0.84632 11.28502,-0.84632 1.91984,0 4.81096,0.82755 6.48401,-1.10761 2.65283,-3.0685 0.46965,-8.43044 -2.00186,-9.08705 -5.58203,-1.48282 -18.29821,-3.1793 -23.48139,0.55819"
         id="path211" /></g><path
       d="m 178.21057,148.45825 c -7.79256,-3.63042 -17.82695,-10.0179 -15.73763,-10.0179 6.43132,0 19.36192,5.93313 23.84438,10.94084 3.63859,4.06497 2.26357,3.90843 -8.10675,-0.92294 z m 50.82012,0.92294 c 1.25151,-1.39816 3.15679,-2.86621 5.39419,-4.25677 5.79568,-3.60206 13.81985,-6.68407 18.48163,-6.68407 1.856,0 -8.3541,6.38902 -16.16467,10.11512 -9.91987,4.73236 -11.34456,4.88491 -7.71115,0.82572 z"
       style="fill:#111827;fill-opacity:1;stroke:none;stroke-width:4.088;stroke-linecap:butt;stroke-linejoin:miter;stroke-dasharray:none;stroke-opacity:1"
       id="path1" /></g></svg>
