<?xml version="1.0" encoding="UTF-8" standalone="no"?>
<!-- Created with Inkscape (http://www.inkscape.org/) -->

<svg
   width="256"
   height="256"
   viewBox="0 0 256 256"
   version="1.1"
   id="svg1"
   xml:space="preserve"
   sodipodi:docname="app-icon-smal_altl.svg"
   inkscape:version="1.3.2 (091e20e, 2023-11-25, custom)"
   inkscape:export-filename="..\app-icon.png"
   inkscape:export-xdpi="384"
   inkscape:export-ydpi="384"
   xmlns:inkscape="http://www.inkscape.org/namespaces/inkscape"
   xmlns:sodipodi="http://sodipodi.sourceforge.net/DTD/sodipodi-0.dtd"
   xmlns="http://www.w3.org/2000/svg"
   xmlns:svg="http://www.w3.org/2000/svg"><sodipodi:namedview
     id="namedview1"
     pagecolor="#ffffff"
     bordercolor="#666666"
     borderopacity="1.0"
     inkscape:showpageshadow="2"
     inkscape:pageopacity="0.0"
     inkscape:pagecheckerboard="false"
     inkscape:deskcolor="#d1d1d1"
     inkscape:document-units="px"
     showguides="true"
     inkscape:zoom="0.64"
     inkscape:cx="54.6875"
     inkscape:cy="127.34375"
     inkscape:window-width="1920"
     inkscape:window-height="1009"
     inkscape:window-x="-8"
     inkscape:window-y="-8"
     inkscape:window-maximized="1"
     inkscape:current-layer="g1"
     showgrid="false" /><defs
     id="defs1"><inkscape:path-effect
       effect="offset"
       id="path-effect135"
       is_visible="true"
       lpeversion="1.2"
       linejoin_type="miter"
       unit="mm"
       offset="0.5"
       miter_limit="4"
       attempt_force_join="false"
       update_on_knot_move="true" /><inkscape:path-effect
       effect="offset"
       id="path-effect133"
       is_visible="true"
       lpeversion="1.2"
       linejoin_type="miter"
       unit="mm"
       offset="0.6"
       miter_limit="4"
       attempt_force_join="false"
       update_on_knot_move="true" /><inkscape:path-effect
       effect="offset"
       id="path-effect86"
       is_visible="true"
       lpeversion="1.2"
       linejoin_type="miter"
       unit="mm"
       offset="0.5"
       miter_limit="4"
       attempt_force_join="false"
       update_on_knot_move="true" /><inkscape:path-effect
       effect="offset"
       id="path-effect84"
       is_visible="true"
       lpeversion="1.2"
       linejoin_type="miter"
       unit="mm"
       offset="0.6"
       miter_limit="4"
       attempt_force_join="false"
       update_on_knot_move="true" /><inkscape:path-effect
       effect="offset"
       id="path-effect53"
       is_visible="true"
       lpeversion="1.2"
       linejoin_type="miter"
       unit="mm"
       offset="0.5"
       miter_limit="4"
       attempt_force_join="false"
       update_on_knot_move="true" /><inkscape:path-effect
       effect="offset"
       id="path-effect51"
       is_visible="true"
       lpeversion="1.2"
       linejoin_type="miter"
       unit="mm"
       offset="0.6"
       miter_limit="4"
       attempt_force_join="false"
       update_on_knot_move="true" /><mask
       maskUnits="userSpaceOnUse"
       id="mask213"><path
         id="path213"
         style="fill:#000000;fill-opacity:1;stroke:none;stroke-width:1.2066;stroke-linecap:round;stroke-linejoin:round;stroke-dasharray:none;stroke-dashoffset:85.3039;stroke-opacity:1"
         d="m -544.87781,-199.95161 c -46.17657,0 -96.54089,24.00875 -128.73241,55.98243 -2.47287,-7.68115 -4.74916,-15.18998 -10.26954,-21.36328 -17.36266,-19.41627 -51.19317,-17.42493 -65.75392,4.08398 -17.88351,26.41723 -4.93889,61.99176 23.83401,73.953127 l -40.6543,118.87891 -12.23048,43.541009 22.26758,-6.910156 c 4.42311,18.452835 -2.50499,39.25265 -8.35158,56.67383 -6.68043,19.90595 -14.64291,40.913 -19.91407,61.91797 6.70828,5.97956 14.29527,10.96551 22.58597,14.74025 0.034,-0.18578 0.076,-0.46649 0.11111,-0.63087 1.3982,-6.4839 3.09341,-12.94038 4.79106,-19.35352 6.51284,-24.60351 9.8468,-50.87068 22.34761,-73.26173 h 0.69532 c 12.79198,18.03701 32.99895,27.87151 51.49414,38.70509 -14.35195,4.552 -25.89312,11.51839 -36.12695,22.80664 -2.17583,2.40004 -5.80577,5.42187 -8.78887,9.66069 -6.1279,9.22755 -12.71664,17.7222 -16.40838,28.12642 3.21778,0.69941 6.48617,1.26076 9.82421,1.60938 h 14.61914 c 2.25215,-8.11312 8.82237,-13.5997 14.61328,-19.35158 2.05658,5.99888 6.08754,15.3153 11.94728,18.53714 3.86815,2.12683 10.88031,0.81444 15.19139,0.81444 5.50889,0 13.59349,1.48398 18.78713,-0.41797 7.73023,-2.8309 18.4916,-16.09693 21.05078,-23.77149 3.87228,-11.61238 -0.8084,-23.89398 -9.91604,-31.64843 -2.99107,-2.5467 -9.07796,-3.98162 -11.11521,-7.24611 -1.33976,-2.1468 -0.71485,-5.69213 -0.71485,-8.10546 0,-6.02711 -1.77506,-12.73184 -0.32429,-18.66016 2.71688,-11.1018 16.27249,-8.68917 24.67967,-8.32032 23.15176,1.01581 46.37798,0.71682 69.58396,0.71682 7.5825,0 19.89952,-3.58111 26.41216,1.14256 7.0277,5.09732 3.8587,16.44633 3.53708,23.74023 -0.13041,2.95634 0.54733,6.35548 -1.14256,8.98243 -3.92232,6.0973 -11.9948,8.38707 -16.65038,13.85158 -9.88871,11.60667 -5.69946,29.48245 3.45898,40.05077 9.46685,10.92431 20.62162,9.68555 33.79098,9.68555 4.12864,0 10.27043,1.1217 13.88872,-1.20508 5.5224,-3.55116 9.1198,-12.18923 11.16208,-18.1465 5.73115,4.97304 11.08202,15.19559 17.46096,18.64065 1.18136,0.638 2.68765,0.99918 4.332,1.22265 h 10.40625 c 2.93606,-0.22447 6.04291,-0.51172 8.16015,-0.51172 -6.67548,-23.01584 -32.51641,-51.4713 -55.66793,-58.74806 v -1.3828 c 14.53426,-3.42099 30.65953,-12.4044 41.74998,-22.23633 6.83633,-6.06057 12.19586,-13.71666 19.48438,-19.23242 9.87911,30.15603 22.26844,61.1555 27.77733,92.6836 7.1238,-3.52569 13.69777,-7.94481 19.59572,-13.14259 -4.55426,-19.15343 -10.0661,-38.18385 -16.29102,-56.73241 -6.51208,-19.40433 -15.33544,-41.527075 -10.20702,-62.20314 l 22.26757,6.220703 c -2.44449,-18.015558 -11.24969,-36.548688 -16.68166,-53.91016 -11.23816,-35.919111 -21.51273,-73.66692 -37.59375,-107.820306 7.79248,-3.239467 15.85841,-8.708363 21.24805,-15.205077 13.98332,-16.85554 14.75894,-41.53559 2.10353,-59.43945 -13.89637,-19.65946 -44.72647,-22.54119 -62.3164,-6.15626 -5.33162,4.96642 -8.40378,11.28985 -11.13671,17.90626 -19.2429,-11.15537 -43.31305,-15.88193 -65.41017,-15.89649 z m -68.19338,43.54102 -16.70116,28.33789 c 26.73087,-14.1396 63.40808,-18.12974 92.54883,-10.79883 8.15458,2.05145 23.73571,5.45564 28.52929,12.87305 -24.33346,0.49896 -45.69687,10.82888 -62.62694,27.644532 29.84905,-9.646852 65.73736,-9.148312 88.25193,15.896486 14.73186,16.387418 19.5082,39.750185 25.88479,60.130858 7.07729,22.62019745 16.26531,44.065468 22.25,67.041021 l -12.52539,-4.146489 c 3.99802,31.421392 -11.66615,58.752465 -38.27149,75.300782 -7.8691,4.89452 -17.72674,10.2776 -27.13867,11.09374 0,-5.55445 0.86233,-11.90585 -0.72463,-17.27929 -8.49603,-28.767946 -45.51133,-20.042972 -68.16402,-20.042972 9.9e-4,-10.104526 6.79991,-7.818675 13.91599,-12.51366 8.84137,-5.833356 14.08191,-16.876925 9.17188,-26.882818 -2.19542,-4.473996 -5.92917,-8.642215 -10.56248,-10.691413 -5.61538,-2.483467 -12.11027,-1.748037 -18.09182,-1.748037 -14.60927,0 -36.83032,-0.587812 -38.20508,19.351564 -0.58509,8.485646 6.05113,16.631601 13.1543,20.517574 7.22938,3.954974 13.21965,2.444447 13.22072,11.96679 -15.26242,0 -30.67934,0.636011 -45.9258,-0.02727 -11.10002,-0.482763 -23.92203,-0.992187 -31.46094,9.039073 -4.98694,6.635579 -4.02735,15.673199 -4.02735,23.470689 -8.19674,-1.45126 -16.55656,-8.26696 -22.96286,-13.27734 -22.15741,-17.329285 -35.75139,-40.209701 -29.92188,-68.27727 l -12.52539,2.763667 c 2.12496,-16.343901 10.13669,-32.125477 15.30859,-47.6894565 7.30749,-21.9906375 12.30479,-44.8247955 22.79101,-65.6581985 5.67681,-11.278362 13.86958,-26.903825 25.91796,-32.484382 6.78145,11.540184 13.24921,22.935243 23.02541,32.367193 26.87267,25.926494 65.07821,34.574093 101.53319,34.673827 l -45.92771,-30.712889 -17.98243,-19.048829 -8.45901,-12.441406 2.08789,27.646486 c -14.45246,-8.258042 -35.28903,-28.800262 -34.03321,-46.998052 1.12434,-16.2924 21.6912,-27.5783 34.72854,-34.03711 4.38405,-2.1719 9.06333,-4.5291 13.91794,-5.35938 z m -35.49021,132.009772 c 5.79957,12.924503 23.46568,27.1991364 36.18554,33.1757747 -4.27292,-18.3363525 -19.06481,-28.3858807 -36.18554,-33.1757747 z m 116.20898,0 c -16.27535,2.178599 -33.67009,16.5080035 -36.18553,33.1757747 13.59656,-6.3886177 28.67739,-20.2597327 36.18553,-33.1757747 z m -143.06641,19.3632763 c -0.99599,0.041607 -2.01623,0.1360095 -3.06248,0.2851654 -33.99315,4.84775951 -25.32348,56.7454333 7.65426,52.0234393 32.77596,-4.693062 26.28431,-53.5974782 -4.59178,-52.3085872 z m 166.96679,0.027272 c -0.98342,0.032516 -1.99234,0.1160801 -3.02537,0.2558657 -5.55955,0.7520381 -10.99192,2.2439819 -15.28126,6.072282 -18.55591,16.561324 -1.45063,49.026353 22.24025,45.96093 32.95952,-4.264667 26.55326,-53.2941144 -3.93362,-52.2890602 z M -671.47936,20.51317 c 10.22616,-0.329989 13.93251,15.042511 2.73827,17.609366 -10.91184,2.502138 -15.76879,-14.811801 -4.8672,-17.326176 0.73724,-0.170099 1.44718,-0.261197 2.12893,-0.28319 z m 159.32614,0.02343 c 10.12013,-0.06748 13.78027,15.186894 2.7637,17.578126 -11.04083,2.396512 -15.99741,-15.078645 -4.87108,-17.35156 0.72962,-0.149121 1.43273,-0.222055 2.10738,-0.226548 z"
         sodipodi:nodetypes="ccssccccscccscccscccccssssssssssssscssscscccccscccsccscssscccccsccssccscscssssssccscsccsscccccccssccccccccscssssssssssssssssss" /></mask><clipPath
       clipPathUnits="userSpaceOnUse"
       id="clipPath216"><path
         id="path216"
         style="fill:#000000;fill-opacity:1;stroke:none;stroke-width:1.2066;stroke-linecap:round;stroke-linejoin:round;stroke-dasharray:none;stroke-dashoffset:85.3039;stroke-opacity:1"
         d="m -544.87781,-199.95161 c -46.17657,0 -96.54089,24.00875 -128.73241,55.98243 -2.47287,-7.68115 -4.74916,-15.18998 -10.26954,-21.36328 -17.36266,-19.41627 -51.19317,-17.42493 -65.75392,4.08398 -17.88351,26.41723 -4.93889,61.99176 23.83401,73.953127 l -40.6543,118.87891 -12.23048,43.541009 22.26758,-6.910156 c 4.42311,18.452835 -2.50499,39.25265 -8.35158,56.67383 -6.68043,19.90595 -14.64291,40.913 -19.91407,61.91797 6.70828,5.97956 14.29527,10.96551 22.58597,14.74025 0.034,-0.18578 0.076,-0.46649 0.11111,-0.63087 1.3982,-6.4839 3.09341,-12.94038 4.79106,-19.35352 6.51284,-24.60351 9.8468,-50.87068 22.34761,-73.26173 h 0.69532 c 12.79198,18.03701 32.99895,27.87151 51.49414,38.70509 -14.35195,4.552 -25.89312,11.51839 -36.12695,22.80664 -2.17583,2.40004 -5.80577,5.42187 -8.78887,9.66069 -6.1279,9.22755 -12.71664,17.7222 -16.40838,28.12642 3.21778,0.69941 6.48617,1.26076 9.82421,1.60938 h 14.61914 c 2.25215,-8.11312 8.82237,-13.5997 14.61328,-19.35158 2.05658,5.99888 6.08754,15.3153 11.94728,18.53714 3.86815,2.12683 10.88031,0.81444 15.19139,0.81444 5.50889,0 13.59349,1.48398 18.78713,-0.41797 7.73023,-2.8309 18.4916,-16.09693 21.05078,-23.77149 3.87228,-11.61238 -0.8084,-23.89398 -9.91604,-31.64843 -2.99107,-2.5467 -9.07796,-3.98162 -11.11521,-7.24611 -1.33976,-2.1468 -0.71485,-5.69213 -0.71485,-8.10546 0,-6.02711 -1.77506,-12.73184 -0.32429,-18.66016 2.71688,-11.1018 16.27249,-8.68917 24.67967,-8.32032 23.15176,1.01581 46.37798,0.71682 69.58396,0.71682 7.5825,0 19.89952,-3.58111 26.41216,1.14256 7.0277,5.09732 3.8587,16.44633 3.53708,23.74023 -0.13041,2.95634 0.54733,6.35548 -1.14256,8.98243 -3.92232,6.0973 -11.9948,8.38707 -16.65038,13.85158 -9.88871,11.60667 -5.69946,29.48245 3.45898,40.05077 9.46685,10.92431 20.62162,9.68555 33.79098,9.68555 4.12864,0 10.27043,1.1217 13.88872,-1.20508 5.5224,-3.55116 9.1198,-12.18923 11.16208,-18.1465 5.73115,4.97304 11.08202,15.19559 17.46096,18.64065 1.18136,0.638 2.68765,0.99918 4.332,1.22265 h 10.40625 c 2.93606,-0.22447 6.04291,-0.51172 8.16015,-0.51172 -6.67548,-23.01584 -32.51641,-51.4713 -55.66793,-58.74806 v -1.3828 c 14.53426,-3.42099 30.65953,-12.4044 41.74998,-22.23633 6.83633,-6.06057 12.19586,-13.71666 19.48438,-19.23242 9.87911,30.15603 22.26844,61.1555 27.77733,92.6836 7.1238,-3.52569 13.69777,-7.94481 19.59572,-13.14259 -4.55426,-19.15343 -10.0661,-38.18385 -16.29102,-56.73241 -6.51208,-19.40433 -15.33544,-41.527075 -10.20702,-62.20314 l 22.26757,6.220703 c -2.44449,-18.015558 -11.24969,-36.548688 -16.68166,-53.91016 -11.23816,-35.919111 -21.51273,-73.66692 -37.59375,-107.820306 7.79248,-3.239467 15.85841,-8.708363 21.24805,-15.205077 13.98332,-16.85554 14.75894,-41.53559 2.10353,-59.43945 -13.89637,-19.65946 -44.72647,-22.54119 -62.3164,-6.15626 -5.33162,4.96642 -8.40378,11.28985 -11.13671,17.90626 -19.2429,-11.15537 -43.31305,-15.88193 -65.41017,-15.89649 z m -68.19338,43.54102 -16.70116,28.33789 c 26.73087,-14.1396 63.40808,-18.12974 92.54883,-10.79883 8.15458,2.05145 23.73571,5.45564 28.52929,12.87305 -24.33346,0.49896 -45.69687,10.82888 -62.62694,27.644532 29.84905,-9.646852 65.73736,-9.148312 88.25193,15.896486 14.73186,16.387418 19.5082,39.750185 25.88479,60.130858 7.07729,22.62019745 16.26531,44.065468 22.25,67.041021 l -12.52539,-4.146489 c 3.99802,31.421392 -11.66615,58.752465 -38.27149,75.300782 -7.8691,4.89452 -17.72674,10.2776 -27.13867,11.09374 0,-5.55445 0.86233,-11.90585 -0.72463,-17.27929 -8.49603,-28.767946 -45.51133,-20.042972 -68.16402,-20.042972 9.9e-4,-10.104526 6.79991,-7.818675 13.91599,-12.51366 8.84137,-5.833356 14.08191,-16.876925 9.17188,-26.882818 -2.19542,-4.473996 -5.92917,-8.642215 -10.56248,-10.691413 -5.61538,-2.483467 -12.11027,-1.748037 -18.09182,-1.748037 -14.60927,0 -36.83032,-0.587812 -38.20508,19.351564 -0.58509,8.485646 6.05113,16.631601 13.1543,20.517574 7.22938,3.954974 13.21965,2.444447 13.22072,11.96679 -15.26242,0 -30.67934,0.636011 -45.9258,-0.02727 -11.10002,-0.482763 -23.92203,-0.992187 -31.46094,9.039073 -4.98694,6.635579 -4.02735,15.673199 -4.02735,23.470689 -8.19674,-1.45126 -16.55656,-8.26696 -22.96286,-13.27734 -22.15741,-17.329285 -35.75139,-40.209701 -29.92188,-68.27727 l -12.52539,2.763667 c 2.12496,-16.343901 10.13669,-32.125477 15.30859,-47.6894565 7.30749,-21.9906375 12.30479,-44.8247955 22.79101,-65.6581985 5.67681,-11.278362 13.86958,-26.903825 25.91796,-32.484382 6.78145,11.540184 13.24921,22.935243 23.02541,32.367193 26.87267,25.926494 65.07821,34.574093 101.53319,34.673827 l -45.92771,-30.712889 -17.98243,-19.048829 -8.45901,-12.441406 2.08789,27.646486 c -14.45246,-8.258042 -35.28903,-28.800262 -34.03321,-46.998052 1.12434,-16.2924 21.6912,-27.5783 34.72854,-34.03711 4.38405,-2.1719 9.06333,-4.5291 13.91794,-5.35938 z m -35.49021,132.009772 c 5.79957,12.924503 23.46568,27.1991364 36.18554,33.1757747 -4.27292,-18.3363525 -19.06481,-28.3858807 -36.18554,-33.1757747 z m 116.20898,0 c -16.27535,2.178599 -33.67009,16.5080035 -36.18553,33.1757747 13.59656,-6.3886177 28.67739,-20.2597327 36.18553,-33.1757747 z m -143.06641,19.3632763 c -0.99599,0.041607 -2.01623,0.1360095 -3.06248,0.2851654 -33.99315,4.84775951 -25.32348,56.7454333 7.65426,52.0234393 32.77596,-4.693062 26.28431,-53.5974782 -4.59178,-52.3085872 z m 166.96679,0.027272 c -0.98342,0.032516 -1.99234,0.1160801 -3.02537,0.2558657 -5.55955,0.7520381 -10.99192,2.2439819 -15.28126,6.072282 -18.55591,16.561324 -1.45063,49.026353 22.24025,45.96093 32.95952,-4.264667 26.55326,-53.2941144 -3.93362,-52.2890602 z M -671.47936,20.51317 c 10.22616,-0.329989 13.93251,15.042511 2.73827,17.609366 -10.91184,2.502138 -15.76879,-14.811801 -4.8672,-17.326176 0.73724,-0.170099 1.44718,-0.261197 2.12893,-0.28319 z m 159.32614,0.02343 c 10.12013,-0.06748 13.78027,15.186894 2.7637,17.578126 -11.04083,2.396512 -15.99741,-15.078645 -4.87108,-17.35156 0.72962,-0.149121 1.43273,-0.222055 2.10738,-0.226548 z"
         sodipodi:nodetypes="ccssccccscccscccscccccssssssssssssscssscscccccscccsccscssscccccsccssccscscssssssccscsccsscccccccssccccccccscssssssssssssssssss" /></clipPath><clipPath
       clipPathUnits="userSpaceOnUse"
       id="clipPath216-0"><path
         id="path216-7"
         style="fill:#000000;fill-opacity:1;stroke:none;stroke-width:1.2066;stroke-linecap:round;stroke-linejoin:round;stroke-dasharray:none;stroke-dashoffset:85.3039;stroke-opacity:1"
         d="m -544.87781,-199.95161 c -46.17657,0 -96.54089,24.00875 -128.73241,55.98243 -2.47287,-7.68115 -4.74916,-15.18998 -10.26954,-21.36328 -17.36266,-19.41627 -51.19317,-17.42493 -65.75392,4.08398 -17.88351,26.41723 -4.93889,61.99176 23.83401,73.953127 l -40.6543,118.87891 -12.23048,43.541009 22.26758,-6.910156 c 4.42311,18.452835 -2.50499,39.25265 -8.35158,56.67383 -6.68043,19.90595 -14.64291,40.913 -19.91407,61.91797 6.70828,5.97956 14.29527,10.96551 22.58597,14.74025 0.034,-0.18578 0.076,-0.46649 0.11111,-0.63087 1.3982,-6.4839 3.09341,-12.94038 4.79106,-19.35352 6.51284,-24.60351 9.8468,-50.87068 22.34761,-73.26173 h 0.69532 c 12.79198,18.03701 32.99895,27.87151 51.49414,38.70509 -14.35195,4.552 -25.89312,11.51839 -36.12695,22.80664 -2.17583,2.40004 -5.80577,5.42187 -8.78887,9.66069 -6.1279,9.22755 -12.71664,17.7222 -16.40838,28.12642 3.21778,0.69941 6.48617,1.26076 9.82421,1.60938 h 14.61914 c 2.25215,-8.11312 8.82237,-13.5997 14.61328,-19.35158 2.05658,5.99888 6.08754,15.3153 11.94728,18.53714 3.86815,2.12683 10.88031,0.81444 15.19139,0.81444 5.50889,0 13.59349,1.48398 18.78713,-0.41797 7.73023,-2.8309 18.4916,-16.09693 21.05078,-23.77149 3.87228,-11.61238 -0.8084,-23.89398 -9.91604,-31.64843 -2.99107,-2.5467 -9.07796,-3.98162 -11.11521,-7.24611 -1.33976,-2.1468 -0.71485,-5.69213 -0.71485,-8.10546 0,-6.02711 -1.77506,-12.73184 -0.32429,-18.66016 2.71688,-11.1018 16.27249,-8.68917 24.67967,-8.32032 23.15176,1.01581 46.37798,0.71682 69.58396,0.71682 7.5825,0 19.89952,-3.58111 26.41216,1.14256 7.0277,5.09732 3.8587,16.44633 3.53708,23.74023 -0.13041,2.95634 0.54733,6.35548 -1.14256,8.98243 -3.92232,6.0973 -11.9948,8.38707 -16.65038,13.85158 -9.88871,11.60667 -5.69946,29.48245 3.45898,40.05077 9.46685,10.92431 20.62162,9.68555 33.79098,9.68555 4.12864,0 10.27043,1.1217 13.88872,-1.20508 5.5224,-3.55116 9.1198,-12.18923 11.16208,-18.1465 5.73115,4.97304 11.08202,15.19559 17.46096,18.64065 1.18136,0.638 2.68765,0.99918 4.332,1.22265 h 10.40625 c 2.93606,-0.22447 6.04291,-0.51172 8.16015,-0.51172 -6.67548,-23.01584 -32.51641,-51.4713 -55.66793,-58.74806 v -1.3828 c 14.53426,-3.42099 30.65953,-12.4044 41.74998,-22.23633 6.83633,-6.06057 12.19586,-13.71666 19.48438,-19.23242 9.87911,30.15603 22.26844,61.1555 27.77733,92.6836 7.1238,-3.52569 13.69777,-7.94481 19.59572,-13.14259 -4.55426,-19.15343 -10.0661,-38.18385 -16.29102,-56.73241 -6.51208,-19.40433 -15.33544,-41.527075 -10.20702,-62.20314 l 22.26757,6.220703 c -2.44449,-18.015558 -11.24969,-36.548688 -16.68166,-53.91016 -11.23816,-35.919111 -21.51273,-73.66692 -37.59375,-107.820306 7.79248,-3.239467 15.85841,-8.708363 21.24805,-15.205077 13.98332,-16.85554 14.75894,-41.53559 2.10353,-59.43945 -13.89637,-19.65946 -44.72647,-22.54119 -62.3164,-6.15626 -5.33162,4.96642 -8.40378,11.28985 -11.13671,17.90626 -19.2429,-11.15537 -43.31305,-15.88193 -65.41017,-15.89649 z m -68.19338,43.54102 -16.70116,28.33789 c 26.73087,-14.1396 63.40808,-18.12974 92.54883,-10.79883 8.15458,2.05145 23.73571,5.45564 28.52929,12.87305 -24.33346,0.49896 -45.69687,10.82888 -62.62694,27.644532 29.84905,-9.646852 65.73736,-9.148312 88.25193,15.896486 14.73186,16.387418 19.5082,39.750185 25.88479,60.130858 7.07729,22.62019745 16.26531,44.065468 22.25,67.041021 l -12.52539,-4.146489 c 3.99802,31.421392 -11.66615,58.752465 -38.27149,75.300782 -7.8691,4.89452 -17.72674,10.2776 -27.13867,11.09374 0,-5.55445 0.86233,-11.90585 -0.72463,-17.27929 -8.49603,-28.767946 -45.51133,-20.042972 -68.16402,-20.042972 9.9e-4,-10.104526 6.79991,-7.818675 13.91599,-12.51366 8.84137,-5.833356 14.08191,-16.876925 9.17188,-26.882818 -2.19542,-4.473996 -5.92917,-8.642215 -10.56248,-10.691413 -5.61538,-2.483467 -12.11027,-1.748037 -18.09182,-1.748037 -14.60927,0 -36.83032,-0.587812 -38.20508,19.351564 -0.58509,8.485646 6.05113,16.631601 13.1543,20.517574 7.22938,3.954974 13.21965,2.444447 13.22072,11.96679 -15.26242,0 -30.67934,0.636011 -45.9258,-0.02727 -11.10002,-0.482763 -23.92203,-0.992187 -31.46094,9.039073 -4.98694,6.635579 -4.02735,15.673199 -4.02735,23.470689 -8.19674,-1.45126 -16.55656,-8.26696 -22.96286,-13.27734 -22.15741,-17.329285 -35.75139,-40.209701 -29.92188,-68.27727 l -12.52539,2.763667 c 2.12496,-16.343901 10.13669,-32.125477 15.30859,-47.6894565 7.30749,-21.9906375 12.30479,-44.8247955 22.79101,-65.6581985 5.67681,-11.278362 13.86958,-26.903825 25.91796,-32.484382 6.78145,11.540184 13.24921,22.935243 23.02541,32.367193 26.87267,25.926494 65.07821,34.574093 101.53319,34.673827 l -45.92771,-30.712889 -17.98243,-19.048829 -8.45901,-12.441406 2.08789,27.646486 c -14.45246,-8.258042 -35.28903,-28.800262 -34.03321,-46.998052 1.12434,-16.2924 21.6912,-27.5783 34.72854,-34.03711 4.38405,-2.1719 9.06333,-4.5291 13.91794,-5.35938 z m -35.49021,132.009772 c 5.79957,12.924503 23.46568,27.1991364 36.18554,33.1757747 -4.27292,-18.3363525 -19.06481,-28.3858807 -36.18554,-33.1757747 z m 116.20898,0 c -16.27535,2.178599 -33.67009,16.5080035 -36.18553,33.1757747 13.59656,-6.3886177 28.67739,-20.2597327 36.18553,-33.1757747 z m -143.06641,19.3632763 c -0.99599,0.041607 -2.01623,0.1360095 -3.06248,0.2851654 -33.99315,4.84775951 -25.32348,56.7454333 7.65426,52.0234393 32.77596,-4.693062 26.28431,-53.5974782 -4.59178,-52.3085872 z m 166.96679,0.027272 c -0.98342,0.032516 -1.99234,0.1160801 -3.02537,0.2558657 -5.55955,0.7520381 -10.99192,2.2439819 -15.28126,6.072282 -18.55591,16.561324 -1.45063,49.026353 22.24025,45.96093 32.95952,-4.264667 26.55326,-53.2941144 -3.93362,-52.2890602 z M -671.47936,20.51317 c 10.22616,-0.329989 13.93251,15.042511 2.73827,17.609366 -10.91184,2.502138 -15.76879,-14.811801 -4.8672,-17.326176 0.73724,-0.170099 1.44718,-0.261197 2.12893,-0.28319 z m 159.32614,0.02343 c 10.12013,-0.06748 13.78027,15.186894 2.7637,17.578126 -11.04083,2.396512 -15.99741,-15.078645 -4.87108,-17.35156 0.72962,-0.149121 1.43273,-0.222055 2.10738,-0.226548 z"
         sodipodi:nodetypes="ccssccccscccscccscccccssssssssssssscssscscccccscccsccscssscccccsccssccscscssssssccscsccsscccccccssccccccccscssssssssssssssssss" /></clipPath><mask
       maskUnits="userSpaceOnUse"
       id="mask213-7"><path
         id="path213-4"
         style="fill:#000000;fill-opacity:1;stroke:none;stroke-width:1.2066;stroke-linecap:round;stroke-linejoin:round;stroke-dasharray:none;stroke-dashoffset:85.3039;stroke-opacity:1"
         d="m -544.87781,-199.95161 c -46.17657,0 -96.54089,24.00875 -128.73241,55.98243 -2.47287,-7.68115 -4.74916,-15.18998 -10.26954,-21.36328 -17.36266,-19.41627 -51.19317,-17.42493 -65.75392,4.08398 -17.88351,26.41723 -4.93889,61.99176 23.83401,73.953127 l -40.6543,118.87891 -12.23048,43.541009 22.26758,-6.910156 c 4.42311,18.452835 -2.50499,39.25265 -8.35158,56.67383 -6.68043,19.90595 -14.64291,40.913 -19.91407,61.91797 6.70828,5.97956 14.29527,10.96551 22.58597,14.74025 0.034,-0.18578 0.076,-0.46649 0.11111,-0.63087 1.3982,-6.4839 3.09341,-12.94038 4.79106,-19.35352 6.51284,-24.60351 9.8468,-50.87068 22.34761,-73.26173 h 0.69532 c 12.79198,18.03701 32.99895,27.87151 51.49414,38.70509 -14.35195,4.552 -25.89312,11.51839 -36.12695,22.80664 -2.17583,2.40004 -5.80577,5.42187 -8.78887,9.66069 -6.1279,9.22755 -12.71664,17.7222 -16.40838,28.12642 3.21778,0.69941 6.48617,1.26076 9.82421,1.60938 h 14.61914 c 2.25215,-8.11312 8.82237,-13.5997 14.61328,-19.35158 2.05658,5.99888 6.08754,15.3153 11.94728,18.53714 3.86815,2.12683 10.88031,0.81444 15.19139,0.81444 5.50889,0 13.59349,1.48398 18.78713,-0.41797 7.73023,-2.8309 18.4916,-16.09693 21.05078,-23.77149 3.87228,-11.61238 -0.8084,-23.89398 -9.91604,-31.64843 -2.99107,-2.5467 -9.07796,-3.98162 -11.11521,-7.24611 -1.33976,-2.1468 -0.71485,-5.69213 -0.71485,-8.10546 0,-6.02711 -1.77506,-12.73184 -0.32429,-18.66016 2.71688,-11.1018 16.27249,-8.68917 24.67967,-8.32032 23.15176,1.01581 46.37798,0.71682 69.58396,0.71682 7.5825,0 19.89952,-3.58111 26.41216,1.14256 7.0277,5.09732 3.8587,16.44633 3.53708,23.74023 -0.13041,2.95634 0.54733,6.35548 -1.14256,8.98243 -3.92232,6.0973 -11.9948,8.38707 -16.65038,13.85158 -9.88871,11.60667 -5.69946,29.48245 3.45898,40.05077 9.46685,10.92431 20.62162,9.68555 33.79098,9.68555 4.12864,0 10.27043,1.1217 13.88872,-1.20508 5.5224,-3.55116 9.1198,-12.18923 11.16208,-18.1465 5.73115,4.97304 11.08202,15.19559 17.46096,18.64065 1.18136,0.638 2.68765,0.99918 4.332,1.22265 h 10.40625 c 2.93606,-0.22447 6.04291,-0.51172 8.16015,-0.51172 -6.67548,-23.01584 -32.51641,-51.4713 -55.66793,-58.74806 v -1.3828 c 14.53426,-3.42099 30.65953,-12.4044 41.74998,-22.23633 6.83633,-6.06057 12.19586,-13.71666 19.48438,-19.23242 9.87911,30.15603 22.26844,61.1555 27.77733,92.6836 7.1238,-3.52569 13.69777,-7.94481 19.59572,-13.14259 -4.55426,-19.15343 -10.0661,-38.18385 -16.29102,-56.73241 -6.51208,-19.40433 -15.33544,-41.527075 -10.20702,-62.20314 l 22.26757,6.220703 c -2.44449,-18.015558 -11.24969,-36.548688 -16.68166,-53.91016 -11.23816,-35.919111 -21.51273,-73.66692 -37.59375,-107.820306 7.79248,-3.239467 15.85841,-8.708363 21.24805,-15.205077 13.98332,-16.85554 14.75894,-41.53559 2.10353,-59.43945 -13.89637,-19.65946 -44.72647,-22.54119 -62.3164,-6.15626 -5.33162,4.96642 -8.40378,11.28985 -11.13671,17.90626 -19.2429,-11.15537 -43.31305,-15.88193 -65.41017,-15.89649 z m -68.19338,43.54102 -16.70116,28.33789 c 26.73087,-14.1396 63.40808,-18.12974 92.54883,-10.79883 8.15458,2.05145 23.73571,5.45564 28.52929,12.87305 -24.33346,0.49896 -45.69687,10.82888 -62.62694,27.644532 29.84905,-9.646852 65.73736,-9.148312 88.25193,15.896486 14.73186,16.387418 19.5082,39.750185 25.88479,60.130858 7.07729,22.62019745 16.26531,44.065468 22.25,67.041021 l -12.52539,-4.146489 c 3.99802,31.421392 -11.66615,58.752465 -38.27149,75.300782 -7.8691,4.89452 -17.72674,10.2776 -27.13867,11.09374 0,-5.55445 0.86233,-11.90585 -0.72463,-17.27929 -8.49603,-28.767946 -45.51133,-20.042972 -68.16402,-20.042972 9.9e-4,-10.104526 6.79991,-7.818675 13.91599,-12.51366 8.84137,-5.833356 14.08191,-16.876925 9.17188,-26.882818 -2.19542,-4.473996 -5.92917,-8.642215 -10.56248,-10.691413 -5.61538,-2.483467 -12.11027,-1.748037 -18.09182,-1.748037 -14.60927,0 -36.83032,-0.587812 -38.20508,19.351564 -0.58509,8.485646 6.05113,16.631601 13.1543,20.517574 7.22938,3.954974 13.21965,2.444447 13.22072,11.96679 -15.26242,0 -30.67934,0.636011 -45.9258,-0.02727 -11.10002,-0.482763 -23.92203,-0.992187 -31.46094,9.039073 -4.98694,6.635579 -4.02735,15.673199 -4.02735,23.470689 -8.19674,-1.45126 -16.55656,-8.26696 -22.96286,-13.27734 -22.15741,-17.329285 -35.75139,-40.209701 -29.92188,-68.27727 l -12.52539,2.763667 c 2.12496,-16.343901 10.13669,-32.125477 15.30859,-47.6894565 7.30749,-21.9906375 12.30479,-44.8247955 22.79101,-65.6581985 5.67681,-11.278362 13.86958,-26.903825 25.91796,-32.484382 6.78145,11.540184 13.24921,22.935243 23.02541,32.367193 26.87267,25.926494 65.07821,34.574093 101.53319,34.673827 l -45.92771,-30.712889 -17.98243,-19.048829 -8.45901,-12.441406 2.08789,27.646486 c -14.45246,-8.258042 -35.28903,-28.800262 -34.03321,-46.998052 1.12434,-16.2924 21.6912,-27.5783 34.72854,-34.03711 4.38405,-2.1719 9.06333,-4.5291 13.91794,-5.35938 z m -35.49021,132.009772 c 5.79957,12.924503 23.46568,27.1991364 36.18554,33.1757747 -4.27292,-18.3363525 -19.06481,-28.3858807 -36.18554,-33.1757747 z m 116.20898,0 c -16.27535,2.178599 -33.67009,16.5080035 -36.18553,33.1757747 13.59656,-6.3886177 28.67739,-20.2597327 36.18553,-33.1757747 z m -143.06641,19.3632763 c -0.99599,0.041607 -2.01623,0.1360095 -3.06248,0.2851654 -33.99315,4.84775951 -25.32348,56.7454333 7.65426,52.0234393 32.77596,-4.693062 26.28431,-53.5974782 -4.59178,-52.3085872 z m 166.96679,0.027272 c -0.98342,0.032516 -1.99234,0.1160801 -3.02537,0.2558657 -5.55955,0.7520381 -10.99192,2.2439819 -15.28126,6.072282 -18.55591,16.561324 -1.45063,49.026353 22.24025,45.96093 32.95952,-4.264667 26.55326,-53.2941144 -3.93362,-52.2890602 z M -671.47936,20.51317 c 10.22616,-0.329989 13.93251,15.042511 2.73827,17.609366 -10.91184,2.502138 -15.76879,-14.811801 -4.8672,-17.326176 0.73724,-0.170099 1.44718,-0.261197 2.12893,-0.28319 z m 159.32614,0.02343 c 10.12013,-0.06748 13.78027,15.186894 2.7637,17.578126 -11.04083,2.396512 -15.99741,-15.078645 -4.87108,-17.35156 0.72962,-0.149121 1.43273,-0.222055 2.10738,-0.226548 z"
         sodipodi:nodetypes="ccssccccscccscccscccccssssssssssssscssscscccccscccsccscssscccccsccssccscscssssssccscsccsscccccccssccccccccscssssssssssssssssss" /></mask><clipPath
       clipPathUnits="userSpaceOnUse"
       id="clipPath218"><path
         id="path219"
         style="fill:#000000;fill-opacity:1;stroke:none;stroke-width:0.690198;stroke-linecap:round;stroke-linejoin:round;stroke-dasharray:none;stroke-dashoffset:85.3039;stroke-opacity:1"
         d="m 517.10224,391.18714 c -26.41386,0 -55.22321,13.73346 -73.63736,32.023 -1.41453,-4.39376 -2.71661,-8.68895 -5.87437,-12.2202 -9.93177,-11.10647 -29.28346,-9.96738 -37.61249,2.33612 -10.2297,15.11115 -2.82514,35.46046 13.63351,42.30258 l -23.25503,68.00099 -6.99607,24.90628 12.73748,-3.95274 c 2.5301,10.55537 -1.4329,22.45326 -4.77726,32.4185 -3.82133,11.38657 -8.37602,23.40301 -11.39123,35.41825 3.83727,3.42042 8.17717,6.27247 12.91961,8.43169 0.0194,-0.10626 0.0435,-0.26683 0.0635,-0.36086 0.7998,-3.70891 1.76949,-7.40214 2.74057,-11.07058 3.72547,-14.07367 5.63256,-29.099 12.78326,-41.90709 h 0.39774 c 7.31725,10.31751 18.87602,15.94303 29.45562,22.14004 -8.20959,2.60382 -14.81136,6.58874 -20.6653,13.04583 -1.24462,1.37287 -3.32101,3.10141 -5.0274,5.5261 -3.50528,5.27832 -7.27416,10.13743 -9.3859,16.08884 1.84063,0.40008 3.71021,0.72118 5.61963,0.92059 h 8.36242 c 1.28827,-4.64086 5.04656,-7.77929 8.35907,-11.06946 1.17641,3.43147 3.48219,8.76064 6.83407,10.60358 2.21267,1.2166 6.22375,0.46588 8.68977,0.46588 3.15119,0 7.77573,0.84886 10.74659,-0.23908 4.42184,-1.61933 10.57754,-9.20776 12.04145,-13.59775 2.21501,-6.6425 -0.46242,-13.66781 -5.67217,-18.1035 -1.71095,-1.45676 -5.19277,-2.27755 -6.35811,-4.1449 -0.76637,-1.22802 -0.40891,-3.25601 -0.40891,-4.63648 0,-3.44762 -1.01537,-7.28285 -0.1855,-10.67396 1.55411,-6.35044 9.30818,-4.97038 14.11724,-4.75938 13.24325,0.58106 26.52909,0.41002 39.80335,0.41002 4.33733,0 11.3829,-2.04845 15.10824,0.65358 4.01999,2.91576 2.20725,9.4076 2.02328,13.57986 -0.0746,1.69108 0.31308,3.63544 -0.65357,5.13811 -2.24364,3.48778 -6.86125,4.79757 -9.52433,7.92336 -5.65653,6.63925 -3.26019,16.86452 1.9786,22.90981 5.41522,6.2489 11.79596,5.54031 19.32908,5.54031 2.36166,0 5.87488,0.64163 7.94461,-0.68933 3.15893,-2.03132 5.2167,-6.97247 6.38492,-10.38013 3.27833,2.84466 6.33913,8.69216 9.988,10.66279 0.67576,0.36496 1.53739,0.57156 2.47799,0.69939 h 5.95257 c 1.67948,-0.1284 3.45666,-0.29272 4.66776,-0.29272 -3.8185,-13.1655 -18.6,-29.44255 -31.84311,-33.60499 v -0.79099 c 8.31387,-1.95688 17.53783,-7.09555 23.88178,-12.71961 3.91051,-3.46676 6.97626,-7.84618 11.14543,-11.0013 5.65104,17.24982 12.73797,34.98209 15.88916,53.01676 4.07495,-2.01675 7.83538,-4.54457 11.20912,-7.5178 -2.60512,-10.95612 -5.758,-21.84188 -9.31877,-32.45202 -3.72503,-11.09964 -8.77216,-23.75427 -5.83861,-35.58136 l 12.73747,3.55836 c -1.39829,-10.30525 -6.43503,-20.90655 -9.54222,-30.83763 -6.42844,-20.54641 -12.30569,-42.13888 -21.50434,-61.67526 4.45745,-1.85303 9.07131,-4.98134 12.15429,-8.69759 7.99872,-9.64168 8.44239,-23.75914 1.20326,-34.00049 -7.94899,-11.24558 -25.58439,-12.89398 -35.64616,-3.52149 -3.04979,2.84088 -4.80712,6.458 -6.37041,10.24272 -11.0073,-6.38109 -24.77588,-9.08477 -37.41585,-9.0931 z m -39.00789,24.90628 -9.55339,16.20981 c 15.29056,-8.08812 36.27062,-10.37055 52.93968,-6.17713 4.66457,1.17346 13.57727,3.12073 16.31929,7.36362 -13.9192,0.28542 -26.13947,6.19433 -35.82378,15.8132 17.07421,-5.51818 37.60301,-5.23301 50.48176,9.09309 8.4269,9.37391 11.15906,22.73785 14.80659,34.39599 4.04834,12.93917 9.30406,25.20628 12.72742,38.34872 l -7.16476,-2.37186 c 2.28694,17.97363 -6.67326,33.60752 -21.89202,43.07347 -4.50127,2.79976 -10.14003,5.87897 -15.52383,6.34583 0,-3.17726 0.49327,-6.81038 -0.41449,-9.88408 -4.8599,-16.45582 -26.03334,-11.46496 -38.99112,-11.46496 5.7e-4,-5.77999 3.88969,-4.47243 7.96021,-7.15806 5.05743,-3.33678 8.05512,-9.65392 5.24649,-15.37747 -1.25581,-2.55921 -3.39159,-4.94351 -6.04194,-6.11569 -3.21209,-1.4206 -6.92729,-0.99992 -10.34885,-0.99992 -8.35678,0 -21.06764,-0.33623 -21.85404,11.06946 -0.33467,4.85395 3.46137,9.5136 7.52452,11.73645 4.13533,2.26232 7.56189,1.39827 7.56249,6.84523 -8.73039,0 -17.54915,0.3638 -26.27042,-0.0156 -6.34942,-0.27614 -13.68385,-0.56754 -17.99625,5.17052 -2.85262,3.79569 -2.30372,8.96537 -2.30372,13.42568 -4.68869,-0.83015 -9.47066,-4.72886 -13.13519,-7.59488 -12.67445,-9.91272 -20.45047,-23.00076 -17.11588,-39.05594 l -7.16476,1.58088 c 1.21552,-9.34903 5.79838,-18.37638 8.75681,-27.27927 4.18002,-12.57907 7.03857,-25.64064 13.03688,-37.55773 3.24725,-6.45144 7.93367,-15.3895 14.82557,-18.58168 3.87911,6.6012 7.57879,13.11939 13.17096,18.51464 15.37168,14.83045 37.22597,19.77703 58.0789,19.83409 l -26.27152,-17.56836 -10.28629,-10.89629 -4.83871,-7.11672 1.19432,15.81432 c -8.26708,-4.72376 -20.18599,-16.4743 -19.46764,-26.88378 0.64314,-9.31956 12.40777,-15.77531 19.86537,-19.46987 2.50777,-1.24236 5.18441,-2.59073 7.96134,-3.06566 z m -20.30108,75.51208 c 3.31747,7.39306 13.42282,15.55842 20.69882,18.97718 -2.44419,-10.48875 -10.90544,-16.23727 -20.69882,-18.97718 z m 66.47373,0 c -9.30981,1.24621 -19.25993,9.44289 -20.6988,18.97718 7.77748,-3.65441 16.404,-11.58896 20.6988,-18.97718 z m -81.83668,11.07617 c -0.56973,0.0238 -1.15332,0.0778 -1.7518,0.16312 -19.44472,2.773 -14.48551,32.45946 4.37838,29.75839 18.74846,-2.68453 15.03512,-30.65877 -2.62658,-29.92151 z m 95.50815,0.0156 c -0.56254,0.0186 -1.13966,0.0664 -1.73057,0.14637 -3.18017,0.43017 -6.28759,1.28359 -8.74117,3.47345 -10.61433,9.47339 -0.82979,28.044 12.72184,26.29053 18.85347,-2.43948 15.18897,-30.48524 -2.2501,-29.91034 z m -93.2547,14.59989 c 5.84955,-0.18876 7.96966,8.60461 1.56634,10.0729 -6.24178,1.43126 -9.02004,-8.47264 -2.78413,-9.9109 0.42172,-0.0973 0.82782,-0.14941 1.21779,-0.162 z m 91.13755,0.0134 c 5.78891,-0.0386 7.88258,8.68719 1.58089,10.05502 -6.31556,1.37085 -9.15082,-8.62527 -2.78635,-9.92543 0.41736,-0.0853 0.81955,-0.12701 1.20546,-0.12958 z"
         sodipodi:nodetypes="ccssccccscccscccscccccssssssssssssscssscscccccscccsccscssscccccsccssccscscssssssccscsccsscccccccssccccccccscssssssssssssssssss" /></clipPath><clipPath
       clipPathUnits="userSpaceOnUse"
       id="clipPath12"><rect
         style="fill:#111827;fill-opacity:1;stroke:none;stroke-width:1.9066;stroke-dasharray:none;stroke-dashoffset:85.3039;stroke-opacity:1"
         id="rect12"
         width="212.21294"
         height="212.21335"
         x="100.51064"
         y="52.093639" /></clipPath><clipPath
       clipPathUnits="userSpaceOnUse"
       id="clipPath14"><path
         style="fill:#ffffff;stroke-width:1.19639"
         d="m 71.849794,301.26467 c 0,-2.16228 8.843667,-32.60259 13.901591,-47.84988 7.094459,-21.38655 8.979479,-29.61448 9.000951,-39.28853 0.02003,-8.99748 0.391951,-8.83415 -11.140773,-4.89196 -2.488067,0.85048 -4.523759,1.31866 -4.523759,1.0404 0,-3.59181 28.228966,-68.91477 35.563016,-87.49037 0.53718,-1.36055 -0.30782,-2.339 -2.9495,-3.41525 -22.744292,-9.26635 -24.054046,-46.390206 -1.99314,-56.493715 15.38835,-7.047592 35.43908,1.334458 38.75926,16.203012 1.03173,4.620337 1.62904,4.478024 9.7249,-2.317038 18.19871,-15.274632 47.7338,-27.81013 71.84586,-30.493321 7.40176,-0.823668 7.40176,-0.823668 -1.80208,10.547592 -10.32063,12.751055 -11.14293,11.278472 7.42167,13.290844 5.31377,0.576015 18.45662,4.580611 27.03417,8.23727 1.57212,0.670201 2.444,-0.04995 3.73618,-3.086161 2.26165,-5.314091 10.46722,-12.41001 16.1434,-13.960322 33.43384,-9.131655 52.00266,36.258229 22.69654,55.479689 -7.8343,5.13841 -7.88894,3.15693 0.716,25.96514 7.63426,20.23529 29.04304,65.97331 28.25212,66.75125 -0.23799,0.23407 -3.40647,-0.42472 -7.04108,-1.46398 -3.63461,-1.03927 -6.99671,-1.88956 -7.47136,-1.88956 -2.99614,0 0.62193,22.87483 6.55395,41.43658 5.85099,18.30821 14.5849,50.21807 14.5849,53.28682 0,3.43304 -12.77044,4.15268 -13.55441,0.62254 -4.56151,-20.5401 -19.88581,-68.05568 -21.58636,-68.05568 -0.53135,0 -4.72134,3.6936 -9.31108,8.20798 -6.61922,6.51057 -10.87442,9.42853 -20.57639,14.11002 -12.23142,5.90206 -12.23142,5.90206 -6.47423,9.18338 11.13254,6.345 27.62958,24.0596 34.00969,35.8334 4.45521,8.22162 -10.40533,9.01992 -15.57797,0.99955 -5.8178,-9.02074 -13.69659,-14.62821 -14.94407,-9.73943 -3.20011,12.54093 -26.34146,14.72433 -37.17396,3.50737 -10.40394,-10.77318 -9.10463,-24.07594 3.16235,-32.37731 5.51959,-3.73524 5.51959,-3.73524 5.51959,-11.29366 0,-4.15713 0.29518,-8.31501 0.65594,-9.23972 2.45984,-6.305 -0.903,-6.88745 -41.67135,-7.21756 -38.97197,-0.31556 -42.73991,0.0556 -43.87412,4.32164 -1.18102,4.44211 0.66528,20.99459 2.34179,20.99459 6.23868,0 14.50519,13.66268 13.1257,21.69381 -3.5688,20.77679 -38.49117,28.01501 -44.5515,9.23402 -1.28235,-3.97398 -11.60316,5.54538 -12.95793,10.56254 -0.36754,1.36112 0.27331,2.09236 -6.83366,1.28136 -4.61344,-0.52653 -8.85867,1.00054 -8.85867,0.53547 0,-1.87074 10.98209,-20.2227 12.32087,-22.05751 0.30631,-0.4198 3.15405,-3.71357 7.64491,-8.15509 7.36968,-7.28872 13.97273,-11.65625 20.70606,-13.69588 1.93875,-0.58728 0.95023,-1.48561 -5.17932,-4.70683 -8.88579,-4.66966 -12.965,-7.62795 -21.86429,-15.85621 -9.3168,-8.61431 -9.76561,-7.79027 -21.382452,39.25905 -5.786055,23.43404 -5.377991,25.46218 -9.261369,26.47239 -3.416273,0.8887 -12.866584,-3.48129 -12.866584,-4.02265 z M 272.94389,241.57435 c 18.89036,-8.74346 31.81299,-27.0748 31.87127,-45.21084 0.0187,-5.8068 0.44327,-8.05793 1.4498,-7.68634 8.31826,3.0709 6.38093,2.51482 -0.22383,-15.76033 -6.11207,-16.91186 -30.4606,-73.65986 -78.38621,-61.43219 -6.3696,1.62514 -6.3696,1.62514 -2.99881,-1.83546 5.12235,-5.25882 18.48803,-11.29999 28.75443,-12.99672 10.74367,-1.775633 10.98193,-2.286577 2.707,-5.805132 -20.02374,-8.514217 -40.74083,-8.904087 -65.02915,-1.223743 -10.44248,3.302066 -10.44248,3.302066 -5.12693,-4.854607 7.8261,-12.009089 5.95404,-12.568373 -10.17345,-3.039385 -31.29368,15.888087 -57.87416,60.789067 -68.4383,86.013937 -7.779837,22.75379 -7.719628,22.26508 -2.62727,21.32543 3.92059,-0.72344 3.92059,-0.72344 3.92059,8.47031 0,14.68045 9.6179,28.93801 27.39976,40.61736 8.97574,5.89538 9.39347,5.89456 9.39347,-0.0187 0,-14.84442 4.71655,-17.2058 33.47581,-16.75992 22.01562,0.34129 22.01562,0.34129 22.01562,-2.65667 0,-2.46698 -0.8114,-3.21287 -4.58121,-4.2113 -22.86992,-6.05715 -14.89035,-28.53541 10.1313,-28.53961 27.27928,-0.005 33.63631,21.33034 8.62435,28.94437 -1.28462,0.39104 -2.11108,1.82193 -2.11108,3.65495 0,3.01236 0,3.01236 17.39601,2.70695 22.74425,-0.39926 28.30998,3.02578 29.41883,18.10384 0.60687,8.25225 0.19647,8.18372 13.138,2.19369 z M 138.06768,187.16341 c -8.97853,-9.28347 -7.33407,-23.66103 3.20149,-27.99081 9.42655,-3.87401 19.05916,-0.69958 23.64747,7.79306 9.07346,16.79433 -13.62559,33.87021 -26.84896,20.19775 z m 19.7277,-4.3257 c 2.01157,-4.34241 -0.50718,-8.73433 -5.00908,-8.73433 -3.38962,0 -7.35004,2.5614 -7.35004,4.75362 0,7.57515 9.30565,10.57236 12.35912,3.98071 z m 96.44252,6.66165 c -10.95772,-6.57109 -11.10569,-24.208 -0.25026,-29.8304 15.60411,-8.08189 32.17734,7.76809 24.58269,23.50991 -3.81188,7.90107 -16.29115,11.14264 -24.33243,6.32049 z m 12.12768,-6.66165 c 2.01156,-4.34241 -0.50718,-8.73433 -5.00908,-8.73433 -6.1051,0 -9.34029,5.3839 -5.84213,9.72225 3.19431,3.96151 8.79466,3.45163 10.85121,-0.98792 z"
         id="path14"
         sodipodi:nodetypes="sscssssssssssssssssssssssssssssssssssssssssssssssssssssssssssscssssssscsssssssssssssssssssssss" /></clipPath></defs><g
     inkscape:label="Camada 1"
     inkscape:groupmode="layer"
     id="layer1"
     transform="translate(-78.356201,-29.955721)"><g
       id="g1"
       transform="translate(0,-16)"><path
         style="fill:#f3f4f6;fill-opacity:1;stroke:#f3f4f6;stroke-width:3;stroke-miterlimit:0;stroke-dashoffset:85.3039;paint-order:markers fill stroke;stroke-dasharray:none;stroke-opacity:1"
         d="m 223.76774,252.14935 c -6.28956,-10.98199 -22.84607,-27.82327 -33.34579,-33.91933 -1.72103,-0.99923 -2.59069,-1.85428 -2.47849,-2.43689 0.10256,-0.53254 4.168,-2.95686 9.99698,-5.96144 11.22103,-5.78394 13.09015,-7.09807 22.15301,-15.57519 3.61918,-3.38527 6.79757,-6.15505 7.06307,-6.15505 0.75784,0 2.40712,4.243 7.08615,18.2301 5.39036,16.11348 14.34956,46.54015 14.34956,48.73307 0,0.23812 -5.15829,0.42556 -11.46287,0.41652 l -11.46286,-0.0164 z"
         id="path18"
         transform="translate(78.356201,45.955721)" /><path
         style="fill:#f3f4f6;fill-opacity:1;stroke:#f3f4f6;stroke-width:6.21500053;stroke-miterlimit:0;stroke-dashoffset:85.3039;paint-order:markers fill stroke;stroke-dasharray:none;stroke-opacity:1"
         d="m 10.404206,254.59987 c 0.223548,-0.7216 1.630525,-6.346 3.126615,-12.49866 9.659698,-39.72543 12.210073,-48.39034 15.141919,-51.44478 1.930609,-2.01134 3.205341,-1.47402 9.030415,3.80647 8.077755,7.32257 12.465986,10.48442 20.688952,14.907 2.542163,1.36726 5.079784,2.87941 5.639155,3.36033 0.934729,0.80365 0.97233,0.89027 0.46461,1.07031 -5.76732,2.04511 -9.989648,4.36658 -14.737616,8.10285 -3.392762,2.66984 -12.085985,11.29159 -13.99529,13.88023 -1.590579,2.15651 -6.463989,10.31231 -9.531542,15.95132 l -2.272206,4.17695 H 16.978486 9.997754 Z"
         id="path17"
         transform="translate(78.356201,45.955721)" /><path
         style="fill:#f3f4f6;fill-opacity:1;stroke:#f3f4f6;stroke-width:7.25899992;stroke-miterlimit:0;stroke-dashoffset:85.3039;paint-order:markers fill stroke;stroke-opacity:1;stroke-dasharray:none"
         d="m 183.04492,198.59757 c -0.27022,-0.45575 -0.85505,-3.56316 -1.29961,-6.90534 -1.86172,-13.99643 -4.8473,-15.73739 -28.35881,-16.53667 -9.52242,-0.32372 -17.61337,-0.8903 -17.97989,-1.25908 -1.51764,-1.527 0.93626,-4.17137 5.48185,-5.90735 6.6849,-2.55299 11.58144,-8.32602 11.58144,-13.65456 0,-5.23042 -2.23221,-8.41915 -8.0832,-11.54694 -3.90097,-2.08536 -6.34745,-2.47113 -15.67117,-2.47113 -9.39942,0 -11.75589,0.37771 -15.78752,2.53049 -12.65855,6.75934 -11.61477,19.84476 2.01761,25.2938 4.21036,1.68295 6.03593,3.0196 6.03593,4.41942 0,1.8561 -1.70452,2.04825 -22.700398,2.5592 -19.527476,0.47521 -23.130868,0.8347 -25.780148,2.57186 -3.750383,2.45918 -6.209743,7.99019 -6.209743,13.96547 0,2.4502 -0.2956,4.45491 -0.656888,4.45491 -2.154985,0 -16.973296,-11.34286 -22.215705,-17.00529 -8.212612,-8.8706 -11.523234,-16.26938 -12.370068,-27.64539 l -0.665106,-8.93476 -3.590776,0.28042 c -1.974927,0.15423 -3.590777,-0.12097 -3.590777,-0.61156 0,-2.86242 8.206028,-24.43909 12.667943,-33.30869 15.784495,-31.37711 37.232058,-57.283909 58.121252,-70.205436 10.865644,-6.721213 17.601094,-10.008683 17.596314,-8.58849 -0.002,0.463907 -1.74171,3.727177 -3.86699,7.251711 -2.12528,3.524534 -3.86415,6.945582 -3.86415,7.602328 0,1.4301 3.92286,0.79513 15.46796,-2.503699 10.38641,-2.967755 31.38425,-4.071857 41.09714,-2.160961 7.85401,1.545179 21.87956,6.533643 21.87956,7.781891 0,0.468267 -2.33673,1.20181 -5.19273,1.630093 -8.06105,1.20883 -22.43144,6.867549 -28.22912,11.115967 -6.68459,4.898324 -6.86562,6.65042 -0.55242,5.346472 2.58259,-0.533417 9.44622,-0.96985 15.25251,-0.96985 10.02927,0 10.98869,0.2135 19.19694,4.271866 9.90577,4.897655 20.66686,14.793095 28.11483,25.853186 5.65553,8.398352 14.34785,26.224002 18.91773,38.795232 l 3.36551,9.25815 -3.16923,-0.63384 -3.16922,-0.63385 -1.24781,10.13452 c -2.37442,19.28471 -13.0645,33.82485 -31.38965,42.69473 -9.90516,4.79437 -10.39234,4.95473 -11.15339,3.67117 z M 81.723526,143.10406 c 10.639726,-7.57616 9.149061,-24.61732 -2.620968,-29.96269 -5.59774,-2.54221 -10.330061,-2.63634 -16.11775,-0.32056 -5.480869,2.19301 -8.661332,6.46346 -9.504846,12.76229 -0.854915,6.38397 3.852392,15.71155 9.496736,18.81788 5.18112,2.8514 13.753939,2.25832 18.746828,-1.29692 z m 111.326944,1.11941 c 15.38284,-6.983 10.57991,-30.94432 -6.59058,-32.87968 -7.60284,-0.85695 -14.67378,2.69826 -17.42558,8.76145 -2.61378,5.75907 -2.74251,9.59568 -0.50188,14.95825 4.34842,10.40725 13.90516,13.97766 24.51804,9.15998 z m -84.99408,-39.38616 c 0.54916,-3.84728 -4.91632,-8.967807 -14.798792,-13.864767 -6.383248,-3.163023 -11.218796,-4.772167 -15.376746,-5.116977 -5.882845,-0.48785 -6.06532,-0.419 -6.06532,2.288534 0,3.357359 7.386665,8.628872 21.333093,15.22442 10.000585,4.72948 14.380735,5.16103 14.907765,1.46879 z m 56.90896,-1.46995 c 15.02407,-7.232019 21.75503,-11.935171 21.75503,-15.200985 0,-2.734529 -0.17085,-2.799623 -6.06531,-2.310809 -11.54415,0.957331 -30.39488,12.402271 -30.39488,18.453794 0,4.73769 3.35203,4.52296 14.70516,-0.942 z"
         id="path16"
         transform="translate(78.356201,45.955721)" /><rect
         style="fill:#334155;fill-opacity:1;stroke:none;stroke-width:0.79009;stroke-linecap:round;stroke-linejoin:round;stroke-dasharray:none;stroke-dashoffset:85.3039;stroke-opacity:1"
         id="rect251"
         width="256"
         height="261.04672"
         x="78.356201"
         y="45.955723"
         rx="1.71875e-07"
         clip-path="url(#clipPath14)" /><path
         d="m 178.21057,148.45825 c -7.79256,-3.63042 -17.82695,-10.0179 -15.73763,-10.0179 6.43132,0 19.36192,5.93313 23.84438,10.94084 3.63859,4.06497 2.26357,3.90843 -8.10675,-0.92294 z m 50.82012,0.92294 c 1.25151,-1.39816 3.15679,-2.86621 5.39419,-4.25677 5.79568,-3.60206 13.81985,-6.68407 18.48163,-6.68407 1.856,0 -8.3541,6.38902 -16.16467,10.11512 -9.91987,4.73236 -11.34456,4.88491 -7.71115,0.82572 z"
         style="fill:#374151;fill-opacity:1;stroke:#374151;stroke-width:4.088;stroke-linecap:butt;stroke-linejoin:miter;stroke-dasharray:none;stroke-opacity:1"
         id="path1"
         transform="matrix(1.2063355,0,0,1.2063355,-42.893349,-32.886685)" /><path
         style="fill:#ffe600;fill-opacity:1;stroke:none;stroke-width:9.68519"
         d="m 172.17269,247.48908 c -7.43478,4.08705 -4.35125,12.34074 3.35538,14.11573 16.27475,3.74837 22.62714,0.52527 39.46977,0.51902 5.7958,-0.003 13.67455,0.94539 18.40436,-2.61528 7.20541,-5.42418 0.36317,-12.43926 -7.01033,-13.45378 -14.51975,-1.99755 -41.44955,-5.37251 -54.0708,1.35445 -0.0501,0.0267 -0.0994,0.0534 -0.14838,0.0803"
         id="path210"
         sodipodi:nodetypes="cscccsc" /><path
         style="fill:#48d22d;fill-opacity:1;stroke:none;stroke-width:6.0791"
         d="m 182.42289,281.75556 c -4.36651,3.14282 -3.65381,12.27563 0.77865,14.21933 3.32316,1.45727 7.1011,1.82662 10.98966,1.7432 5.88267,-0.12608 12.01846,-1.28876 17.2157,-1.28876 2.92878,0 7.33928,1.26017 9.89159,-1.68662 4.04698,-4.67261 0.71646,-12.83759 -3.05391,-13.83746 -8.51559,-2.258 -27.91456,-4.84133 -35.82169,0.84999"
         id="path211" /><path
         style="fill:#f3f4f6;fill-opacity:1;stroke:#6b7280;stroke-width:0.0103516;stroke-miterlimit:0;stroke-dashoffset:85.3039;paint-order:markers fill stroke"
         d="m 77.441406,255.47101 c 8.085857,-2.40755 14.346429,-7.25126 17.379785,-13.44648 1.38454,-2.82774 1.912977,-4.88747 1.912426,-7.45422 -7.26e-4,-3.38366 -0.660965,-5.82108 -2.698171,-9.96093 -2.642385,-5.36965 -6.665956,-9.38996 -9.843915,-9.83594 -0.772161,-0.10836 -0.935077,-0.21601 -1.223703,-0.8086 -1.642411,-3.37207 -2.74871,-17.39877 -1.621377,-20.55734 0.636699,-1.7839 2.182491,-2.64036 5.733723,-3.1768 4.291118,-0.6482 9.019564,-0.73497 33.622956,-0.61696 27.6292,0.13253 35.0945,0.35745 40.625,1.22399 2.95278,0.46265 4.13824,0.87869 5.12452,1.79847 0.76553,0.71392 0.85473,1.52799 0.34962,3.19093 -0.57423,1.89055 -0.72995,3.62559 -0.88313,9.84029 -0.14211,5.76527 -0.29132,6.71912 -1.26034,8.05681 -0.32677,0.4511 -1.51653,1.4626 -2.69066,2.28753 -4.65055,3.26744 -6.58734,5.05893 -8.45029,7.81637 -1.22599,1.81464 -1.80867,2.99941 -2.40371,4.88743 -1.77899,5.64464 -0.81111,11.34513 2.86345,16.86475 3.14458,4.72354 7.01116,7.76969 12.331,9.71458 l 1.75782,0.64264 -46.09375,-6.4e-4 -46.093754,-6.5e-4 z m 46.284314,-4.19488 c 5.94586,-0.6337 8.8696,-0.7713 11.7235,-0.55173 4.09662,0.31519 5.87426,-0.13399 7.49689,-1.89433 1.02834,-1.11562 1.50309,-2.15292 1.81331,-3.962 0.59906,-3.49344 -1.38751,-8.31244 -3.96977,-9.62981 -1.33928,-0.68325 -6.81342,-1.77229 -12.37168,-2.46126 -4.00741,-0.49673 -13.23949,-0.4934 -16.21094,0.006 -5.77312,0.96998 -9.34439,2.98093 -10.42552,5.87053 -1.4127,3.77578 -0.64071,8.39311 1.7649,10.55596 1.06516,0.95767 3.54802,1.88005 6.0239,2.23788 0.80567,0.11644 1.68457,0.25002 1.95313,0.29685 1.15151,0.20081 8.61202,-0.0853 12.20228,-0.46794 z m -1.55775,-34.30519 c 4.95,-0.41622 7.90771,-0.53658 16.21094,-0.65968 10.73114,-0.1591 11.24777,-0.20288 13.81989,-1.17107 1.70859,-0.64314 2.81551,-1.32489 3.93521,-2.42369 1.42775,-1.4011 1.97206,-2.59468 1.96916,-4.31806 -0.003,-1.82753 -0.54872,-2.92797 -2.3264,-4.69178 -1.51184,-1.50007 -3.74119,-2.7609 -5.83685,-3.3011 -2.25565,-0.58144 -13.94095,-1.99155 -21.42429,-2.58535 -5.83052,-0.46265 -17.36888,-0.46398 -21.17372,-0.002 -7.563142,0.91742 -13.284949,2.81794 -15.76939,5.23786 -4.023093,3.91862 -1.872141,10.17756 4.217666,12.27276 1.400904,0.48198 6.411954,1.46594 8.897314,1.74706 1.02051,0.11543 2.11914,0.24061 2.44141,0.27818 2.28992,0.26696 9.49277,0.0837 15.03906,-0.38269 z"
         id="path15"
         transform="translate(78.356201,45.955721)" /><path
         style="fill:#ffffff;fill-opacity:1;stroke:#6b7280;stroke-width:0.0146393;stroke-miterlimit:0;stroke-dashoffset:85.3039;paint-order:markers fill stroke"
         d="m 77.754125,255.45635 c 0.60767,-0.23488 2.058945,-0.79807 3.225055,-1.25153 9.93205,-3.86218 16.807942,-13.38816 15.672734,-21.71329 -0.921105,-6.755 -6.131209,-15.10097 -10.648296,-17.05731 -0.891202,-0.38598 -1.919449,-0.85184 -2.284994,-1.03524 -0.63049,-0.31632 -1.252135,-1.61103 -1.549194,-3.22651 -0.07056,-0.38374 -0.176039,-0.94631 -0.234388,-1.25014 -0.09672,-0.50365 -0.441295,-3.06704 -0.594061,-4.41942 -0.337487,-2.98765 -0.422963,-8.89399 -0.153816,-10.62868 0.271059,-1.74701 0.445913,-2.16185 1.191975,-2.82794 0.935266,-0.835 2.88602,-1.53429 4.904353,-1.75806 0.683629,-0.0758 2.175182,-0.25025 3.314563,-0.38769 1.983216,-0.23922 54.414064,-0.12251 59.385924,0.1322 9.97911,0.51122 13.36894,0.95531 15.44094,2.02287 1.60424,0.82655 1.77033,1.47917 1.14632,4.50415 -0.36747,1.78138 -0.58122,4.24879 -0.68451,7.90151 -0.0826,2.9212 -0.2317,5.84216 -0.33132,6.49102 -0.24456,1.59277 -0.9854,2.97075 -2.045,3.80377 -0.4831,0.3798 -1.02074,0.81751 -1.19475,0.97269 -0.17402,0.15518 -1.12432,0.85401 -2.11178,1.55295 -6.67144,4.72213 -9.94626,10.35691 -9.92977,17.08553 0.009,3.78189 1.06816,7.14338 3.36377,10.67847 3.24767,5.0012 6.66388,7.8209 12.36649,10.20714 l 1.51917,0.6357 -45.43713,-0.003 c -41.285314,-0.002 -45.336183,-0.0416 -44.332285,-0.42963 z m 47.684935,-4.25972 c 4.60078,-0.39113 7.67665,-0.51771 9.72484,-0.40022 5.20375,0.2985 7.43682,-0.60773 8.90821,-3.61515 1.40401,-2.86969 0.90066,-6.82672 -1.28887,-10.13231 -1.29821,-1.95995 -2.54275,-2.42848 -9.64829,-3.6323 -0.53171,-0.0901 -1.27749,-0.22037 -1.65728,-0.28953 -0.3798,-0.0692 -1.43631,-0.20515 -2.34782,-0.3022 -0.9115,-0.0971 -1.74435,-0.22831 -1.85076,-0.29168 -0.25794,-0.15358 -12.87328,-0.14717 -13.75531,0.007 -0.37979,0.0664 -1.28205,0.20165 -2.00501,0.3006 -1.45958,0.19977 -4.58406,1.20582 -5.96879,1.92189 -1.37497,0.71103 -3.05129,2.34282 -3.68871,3.59075 -0.80821,1.58229 -1.01277,5.62765 -0.38079,7.53038 0.65376,1.96828 1.89156,3.51648 3.36534,4.20924 3.80748,1.78973 9.15232,2.07614 20.59324,1.10353 z m -4.04319,-34.10178 c 3.03835,-0.23252 10.49612,-0.53971 16.57282,-0.68265 6.0767,-0.14294 11.57247,-0.38726 12.21283,-0.54293 3.10581,-0.755 5.99428,-2.61645 7.1681,-4.61942 1.87822,-3.20493 0.46438,-6.6616 -3.83476,-9.37553 -2.31227,-1.45967 -5.78668,-2.15919 -16.23671,-3.26901 -2.2028,-0.23395 -4.62658,-0.49148 -5.38616,-0.5723 -6.37661,-0.67847 -17.60306,-0.87209 -23.06384,-0.39778 -7.80114,0.6776 -14.706808,2.84363 -17.284699,5.42152 -3.930561,3.93056 -1.836129,10.166 4.117546,12.25855 1.404792,0.49374 7.826043,1.76959 10.128803,2.01251 2.53991,0.26793 10.64114,0.147 15.60607,-0.23296 z"
         id="path19"
         transform="translate(78.356201,45.955721)" /></g></g></svg>
