<?xml version="1.0" encoding="UTF-8" standalone="no"?>
<!-- Created with Inkscape (http://www.inkscape.org/) -->

<svg
   width="256"
   height="256"
   viewBox="0 0 67.733333 67.733333"
   version="1.1"
   id="svg1"
   xml:space="preserve"
   inkscape:version="1.3.2 (091e20e, 2023-11-25, custom)"
   sodipodi:docname="capy_diff.svg"
   xmlns:inkscape="http://www.inkscape.org/namespaces/inkscape"
   xmlns:sodipodi="http://sodipodi.sourceforge.net/DTD/sodipodi-0.dtd"
   xmlns="http://www.w3.org/2000/svg"
   xmlns:svg="http://www.w3.org/2000/svg"><sodipodi:namedview
     id="namedview1"
     pagecolor="#b7b7b7"
     bordercolor="#666666"
     borderopacity="1.0"
     inkscape:showpageshadow="2"
     inkscape:pageopacity="0.0"
     inkscape:pagecheckerboard="0"
     inkscape:deskcolor="#d1d1d1"
     inkscape:document-units="mm"
     showguides="true"
     inkscape:zoom="0.64"
     inkscape:cx="29.6875"
     inkscape:cy="457.03125"
     inkscape:window-width="1920"
     inkscape:window-height="1009"
     inkscape:window-x="-8"
     inkscape:window-y="-8"
     inkscape:window-maximized="1"
     inkscape:current-layer="layer1" /><defs
     id="defs1"><inkscape:path-effect
       effect="offset"
       id="path-effect135"
       is_visible="true"
       lpeversion="1.2"
       linejoin_type="miter"
       unit="mm"
       offset="0.5"
       miter_limit="4"
       attempt_force_join="false"
       update_on_knot_move="true" /><inkscape:path-effect
       effect="offset"
       id="path-effect133"
       is_visible="true"
       lpeversion="1.2"
       linejoin_type="miter"
       unit="mm"
       offset="0.6"
       miter_limit="4"
       attempt_force_join="false"
       update_on_knot_move="true" /><inkscape:path-effect
       effect="offset"
       id="path-effect86"
       is_visible="true"
       lpeversion="1.2"
       linejoin_type="miter"
       unit="mm"
       offset="0.5"
       miter_limit="4"
       attempt_force_join="false"
       update_on_knot_move="true" /><inkscape:path-effect
       effect="offset"
       id="path-effect84"
       is_visible="true"
       lpeversion="1.2"
       linejoin_type="miter"
       unit="mm"
       offset="0.6"
       miter_limit="4"
       attempt_force_join="false"
       update_on_knot_move="true" /><inkscape:path-effect
       effect="offset"
       id="path-effect53"
       is_visible="true"
       lpeversion="1.2"
       linejoin_type="miter"
       unit="mm"
       offset="0.5"
       miter_limit="4"
       attempt_force_join="false"
       update_on_knot_move="true" /><inkscape:path-effect
       effect="offset"
       id="path-effect51"
       is_visible="true"
       lpeversion="1.2"
       linejoin_type="miter"
       unit="mm"
       offset="0.6"
       miter_limit="4"
       attempt_force_join="false"
       update_on_knot_move="true" /></defs><g
     inkscape:label="Camada 1"
     inkscape:groupmode="layer"
     id="layer1"
     transform="translate(-78.356201,-29.955721)"><g
       id="g168"
       transform="matrix(0.57201889,0,0,0.57201889,543.73022,165.96915)"><rect
         style="fill:#ffffff;fill-opacity:1;stroke:none;stroke-width:0.319245;stroke-linecap:round;stroke-linejoin:round;stroke-dasharray:none;stroke-dashoffset:85.3039;stroke-opacity:1"
         id="rect167"
         width="118.41099"
         height="118.41099"
         x="-813.56409"
         y="-237.77785"
         rx="23.901083" /><g
         id="g167"
         transform="translate(-253.05349,-199.43022)"><path
           id="rect57"
           style="fill:#000000;fill-opacity:1;stroke:none;stroke-width:0.319245;stroke-linecap:round;stroke-linejoin:round;stroke-dasharray:none;stroke-dashoffset:85.3039;stroke-opacity:1"
           d="m -489.01175,-28.339429 c -12.21755,0 -25.54311,6.352315 -34.06045,14.812016 -0.65428,-2.032304 -1.25655,-4.019014 -2.71715,-5.652368 -4.59387,-5.13722 -13.54486,-4.610344 -17.39739,1.080554 -4.73168,6.989558 -1.30675,16.4019859 6.30608,19.5667644 l -10.75645,31.4533776 -3.23598,11.520227 5.89163,-1.828312 c 1.17028,4.882312 -0.66278,10.385598 -2.20969,14.99495 -1.76753,5.266779 -3.87427,10.824896 -5.26893,16.382462 1.7749,1.582091 3.78229,2.901291 5.97587,3.900021 0.009,-0.04915 0.0201,-0.123421 0.0294,-0.166915 0.36994,-1.715528 0.81846,-3.423808 1.26763,-5.120618 1.72319,-6.509679 2.6053,-13.459538 5.91281,-19.383829 h 0.18397 c 3.38454,4.772289 8.73097,7.374334 13.62449,10.240718 -3.79729,1.204381 -6.85089,3.047576 -9.55859,6.034257 -0.57569,0.635014 -1.89747,2.987096 -2.77709,2.194698 -1.62134,2.44145 -2.91291,5.050358 -3.88968,7.803141 0.85137,0.185056 1.71613,0.333577 2.59932,0.425814 h 3.86798 c 0.59588,-2.146596 2.33425,-3.598256 3.86643,-5.120101 0.54414,1.5872 1.61066,4.052173 3.16105,4.904611 1.02345,0.56273 2.87875,0.21549 4.01939,0.21549 1.45756,0 3.59661,0.392635 4.97076,-0.110587 2.04529,-0.749009 4.89257,-4.258983 5.56969,-6.289539 1.02454,-3.072443 -0.21389,-6.321951 -2.62362,-8.373649 -0.79139,-0.673813 -2.40188,-1.053467 -2.9409,-1.917196 -0.35448,-0.56801 -0.18914,-1.506045 -0.18914,-2.144572 0,-1.594674 -0.46965,-3.368631 -0.0858,-4.937166 0.71884,-2.937351 4.30543,-2.299011 6.52983,-2.201416 6.12557,0.268763 12.27084,0.189653 18.41076,0.189653 2.0062,0 5.26508,-0.947496 6.98821,0.302307 1.85942,1.348664 1.02095,4.351421 0.93586,6.28127 -0.0345,0.782194 0.14481,1.681547 -0.30231,2.376599 -1.03778,1.613246 -3.17362,2.219077 -4.40541,3.664893 -2.61639,3.070938 -1.50798,7.800566 0.91519,10.596769 2.50477,2.890387 5.45614,2.562634 8.94053,2.562634 1.09237,0 2.71738,0.296782 3.67472,-0.318843 1.46114,-0.939574 2.41295,-3.225068 2.9533,-4.801258 1.51637,1.315778 2.93212,4.020496 4.61988,4.931999 0.31257,0.168808 0.71111,0.26437 1.14618,0.323495 h 2.75332 c 0.77683,-0.05939 1.59885,-0.135393 2.15904,-0.135393 -1.76622,-6.089609 -8.6033,-13.618446 -14.72881,-15.543754 v -0.365869 c 3.84552,-0.905137 8.112,-3.281994 11.04635,-5.883362 1.80878,-1.603526 3.22682,-3.6292 5.15524,-5.088578 2.61385,7.978785 5.89186,16.180725 7.34942,24.522534 1.88484,-0.932836 3.6242,-2.102063 5.1847,-3.477307 -1.20498,-5.067676 -2.66332,-10.102808 -4.31033,-15.010453 -1.72299,-5.13406 -4.0575,-10.987371 -2.70061,-16.45791 l 5.89163,1.645894 c -0.64677,-4.76662 -2.97648,-9.670176 -4.41369,-14.263729 -2.97343,-9.5036 -5.69191,-19.491042 -9.94668,-28.5274576 2.06176,-0.8571088 4.19587,-2.30408778 5.62188,-4.0230102 3.69975,-4.459695 3.90497,-10.9896252 0.55656,-15.7266882 -3.67675,-5.201565 -11.83388,-5.964022 -16.48788,-1.628842 -1.41066,1.314031 -2.2235,2.987104 -2.94659,4.737696 -5.09135,-2.951525 -11.45991,-4.202094 -17.30644,-4.205945 z m -18.04283,11.520227 -4.41885,7.4977339 c 7.07254,-3.7411029 16.77672,-4.7968279 24.48688,-2.8571899 2.15756,0.542779 6.28007,1.443471 7.54837,3.4059936 -6.43823,0.1320162 -12.09063,2.8651401 -16.57004,7.3142822 7.89756,-2.5523977 17.39301,-2.4204919 23.34999,4.2059448 3.8978,4.3358381 5.16154,10.5172354 6.84868,15.9096234 1.87253,5.984925 4.30353,11.658988 5.88698,17.737935 l -3.31401,-1.09709 c 1.05781,8.313577 -3.08667,15.544924 -10.126,19.923331 -2.08203,1.295012 -4.6902,2.719278 -7.18044,2.935222 0,-1.469619 0.22816,-3.150094 -0.19172,-4.571814 -2.24791,-7.611522 -12.04154,-5.303036 -18.03507,-5.303036 2.9e-4,-2.673492 1.79915,-2.068691 3.68194,-3.310909 2.33928,-1.543406 3.72584,-4.465353 2.42673,-7.112744 -0.58087,-1.183744 -1.56876,-2.286585 -2.79466,-2.828768 -1.48573,-0.657088 -3.20417,-0.462504 -4.78679,-0.462504 -3.86537,0 -9.74469,-0.155524 -10.10843,5.120101 -0.1548,2.245161 1.60103,4.400447 3.48041,5.428609 1.91277,1.046421 3.4977,0.64676 3.49798,3.166215 -4.03818,0 -8.11724,0.168275 -12.1512,-0.0072 -2.93688,-0.127729 -6.32937,-0.262514 -8.32404,2.391586 -1.31946,1.755671 -1.06557,4.14687 -1.06557,6.209957 -2.16872,-0.383982 -4.38059,-2.187304 -6.07559,-3.512964 -5.86248,-4.585059 -9.45922,-10.638837 -7.91683,-18.065047 l -3.31401,0.731221 c 0.56223,-4.324326 2.682,-8.499865 4.0504,-12.617834 1.93344,-5.818359 3.25564,-11.859896 6.03012,-17.3720666 1.50199,-2.9840661 3.66966,-7.1183033 6.85746,-8.5948242 1.79426,3.05333865 3.50552,6.0682815 6.09214,8.5638183 7.11006,6.8597185 17.21861,9.1477265 26.86399,9.1741175 l -12.15171,-8.1261194 -4.75785,-5.0400025 -2.23811,-3.2917887 0.55242,7.314799 c -3.82388,-2.1849398 -9.33689,-7.6200688 -9.00462,-12.4348999 0.29748,-4.3106965 5.73913,-7.2967575 9.18859,-9.0056515 1.15995,-0.57465 2.39801,-1.198325 3.68246,-1.418002 z m -9.39012,34.927584 c 1.53447,3.419607 6.20863,7.196438 9.57409,8.777759 -1.13054,-4.851496 -5.04423,-7.510434 -9.57409,-8.777759 z m 30.74696,0 c -4.30619,0.576424 -8.90855,4.367742 -9.57409,8.777759 3.59742,-1.690322 7.58756,-5.36039 9.57409,-8.777759 z m -37.85299,5.123202 c -0.26352,0.011 -0.53346,0.03597 -0.81028,0.07545 -8.99402,1.282634 -6.70017,15.013896 2.02519,13.764535 8.67197,-1.241708 6.95439,-14.181 -1.21491,-13.839982 z m 44.17663,0.0072 c -0.2602,0.0086 -0.52714,0.03073 -0.80046,0.0677 -1.47097,0.198973 -2.90828,0.593717 -4.04317,1.606621 -4.90958,4.381851 -0.38381,12.971556 5.8844,12.160498 8.72054,-1.12836 7.02555,-14.100732 -1.04077,-13.834815 z m -43.13431,6.753077 c 2.70567,-0.08731 3.68631,3.979999 0.7245,4.659147 -2.88709,0.66202 -4.17216,-3.918959 -1.28778,-4.584217 0.19506,-0.04499 0.3829,-0.06911 0.56328,-0.07493 z m 42.15504,0.0062 c 2.67762,-0.01786 3.64603,4.0182 0.73123,4.650879 -2.92122,0.634078 -4.23265,-3.989558 -1.28881,-4.590935 0.19305,-0.03944 0.37908,-0.05875 0.55758,-0.05994 z" /><g
           id="g145"
           transform="matrix(1.0825714,0,0,1.0825714,-505.59676,-45.388331)"><g
             id="g135"
             transform="matrix(1.3202575,0,0,1.3874984,-434.93542,-141.22571)"><path
               style="fill:#000000;fill-opacity:1;stroke:none;stroke-width:0.265;stroke-linecap:butt;stroke-linejoin:miter;stroke-dasharray:none;stroke-opacity:1"
               d="m 58.822266,207.10742 -0.882813,0.006 0.574219,0.66992 c 1.615273,1.88428 2.742892,3.62587 5.763672,5.19141 l 0.832031,0.43164 -0.25,-0.9043 c -0.663668,-2.4078 -2.449145,-3.87752 -2.535156,-3.94726 l -0.01563,-0.0137 c -0.08903,-0.0761 -1.715695,-1.44508 -3.486328,-1.4336 z"
               id="path131"
               sodipodi:nodetypes="cccc"
               transform="translate(263.93599,-63.175535)" /><path
               style="fill:#000000;fill-opacity:1;stroke:none;stroke-width:0.265;stroke-linecap:butt;stroke-linejoin:miter;stroke-dasharray:none;stroke-opacity:1"
               d="m 58.822266,207.17578 -0.736329,0.006 0.478516,0.55859 c 1.619229,1.8889 2.73841,3.61609 5.744141,5.17383 l 0.693359,0.35938 -0.208984,-0.75196 c -0.430443,-1.56165 -1.546875,-2.95117 -1.546875,-2.95117 -0.276454,-0.34053 -0.598038,-0.66999 -0.966797,-0.96289 l -0.01367,-0.0117 c -0.324216,-0.28205 -0.654208,-0.50833 -0.974609,-0.68945 -0.142234,-0.0804 -1.378705,-0.73754 -2.46875,-0.73047 z"
               id="path132"
               sodipodi:nodetypes="cccc"
               transform="matrix(-1,0,0,1,400.97745,-63.003628)" /></g><g
             id="g144"><g
               id="g142"
               transform="translate(0,1.2298167)"><path
                 style="fill:#ffe600;fill-opacity:1;stroke:none;stroke-width:1.73734"
                 d="m 5.4858883,102.40533 c -0.8654074,0.97897 -0.7325268,3.16283 0.2201234,3.72053 1.3027179,0.76266 7.2384903,-3.60817 6.3916363,-4.02986 -1.363859,-0.67915 -5.3919618,-1.07055 -6.6117597,0.30933"
                 id="path137" /><path
                 style="fill:#080808;stroke:none;stroke-width:1.64457"
                 d="m -3.4551913,101.60891 c -0.1904839,0.0271 -0.404371,0.0547 -0.6191266,0.12716 -2.3643395,0.79731 -4.1670998,1.25952 -1.722578,2.8439 1.7299927,1.12128 2.8853124,1.89674 4.89470542,1.55275 0.24813067,-0.0425 0.49175992,-0.10617 0.72518064,-0.18781 1.83248324,-0.64088 3.03580264,-2.38756 0.84864254,-3.65639 -1.52767917,-0.88625 -2.38611,-0.92698 -4.126824,-0.67961"
                 id="path79"
                 sodipodi:nodetypes="csssssc" /></g><g
               id="g141"
               transform="translate(0,1.5875)"><path
                 style="fill:#ffe600;fill-opacity:1;stroke:none;stroke-width:1.21217"
                 d="m 3.580961,112.42967 c -0.6243828,-0.97595 -0.3600425,-2.95154 0.2542876,-3.41418 1.9976381,-1.50436 3.2602894,-0.15521 5.3407682,-0.15521 0.6109313,0 2.0929662,3.82154 1.4943752,3.92154 -2.0660707,0.34513 -2.5928249,0.0157 -4.66337,0.0157 -0.6772348,0 -1.825213,0.57131 -2.426061,-0.36787"
                 id="path140"
                 sodipodi:nodetypes="csscsc" /><path
                 style="fill:#080808;stroke:none;stroke-width:1.48623"
                 d="m -1.494399,108.83221 c 1.19188234,0.58017 2.48788022,2.45726 1.17436514,3.3505 -0.91837854,0.62452 -3.37079484,0.53666 -4.33086624,0.0629 -2.0301016,-1.0018 -0.7826071,-2.61625 0.8395072,-3.28859 0.7965864,-0.33017 1.6835156,-0.43314 2.3169939,-0.12479"
                 id="path80"
                 sodipodi:nodetypes="cscsc" /></g><g
               id="g143"
               transform="translate(0,1.0583333)"><path
                 style="fill:#080808;stroke:none;stroke-width:2.02666"
                 d="m 5.0003392,98.015749 c -1.2562766,-1.0591 -0.735243,-3.197926 0.5669693,-3.657885 2.7499958,-0.971338 3.8233775,-0.13612 6.6693275,-0.134498 0.979335,7.7e-4 2.310633,-0.244985 3.109846,0.677711 1.217521,1.405595 0.06136,3.223451 -1.18456,3.486351 -2.453446,0.517633 -7.003856,1.392209 -9.1365122,-0.350986 -0.00844,-0.0069 -0.016793,-0.01383 -0.025071,-0.02081"
                 id="path135"
                 sodipodi:nodetypes="cscccsc" /><path
                 style="fill:#48d22d;fill-opacity:1;stroke:none;stroke-width:1.70415"
                 d="m -10.99697,94.720941 c -1.222947,0.881826 -1.023339,3.444343 0.218079,3.989712 0.9307338,0.408882 1.9888403,0.512522 3.0779235,0.489112 1.6475845,-0.0354 3.3660605,-0.361603 4.8216738,-0.361603 0.8202793,0 2.05554669,0.353583 2.77038054,-0.473241 C 1.0245436,97.053863 0.09174934,94.762903 -0.96423525,94.482358 -3.3492308,93.848803 -8.782386,93.123959 -10.99697,94.720854"
                 id="path141" /></g></g></g></g></g></g></svg>
