<?xml version="1.0" encoding="UTF-8" standalone="no"?>
<!-- Created with Inkscape (http://www.inkscape.org/) -->

<svg
   width="20"
   height="20"
   viewBox="0 0 20 20"
   version="1.1"
   id="svg1"
   xml:space="preserve"
   sodipodi:docname="pocket_diff.svg"
   inkscape:version="1.3.2 (091e20e, 2023-11-25, custom)"
   xmlns:inkscape="http://www.inkscape.org/namespaces/inkscape"
   xmlns:sodipodi="http://sodipodi.sourceforge.net/DTD/sodipodi-0.dtd"
   xmlns="http://www.w3.org/2000/svg"
   xmlns:svg="http://www.w3.org/2000/svg"><sodipodi:namedview
     id="namedview1"
     pagecolor="#ffffff"
     bordercolor="#666666"
     borderopacity="1.0"
     inkscape:showpageshadow="2"
     inkscape:pageopacity="0.0"
     inkscape:pagecheckerboard="0"
     inkscape:deskcolor="#d1d1d1"
     inkscape:document-units="px"
     inkscape:zoom="2.0019961"
     inkscape:cx="-81.918242"
     inkscape:cy="-25.724326"
     inkscape:window-width="1920"
     inkscape:window-height="1009"
     inkscape:window-x="-8"
     inkscape:window-y="-8"
     inkscape:window-maximized="1"
     inkscape:current-layer="layer1" /><defs
     id="defs1" /><g
     inkscape:label="Camada 1"
     inkscape:groupmode="layer"
     id="layer1"><g
       id="g40"
       transform="translate(0.071065,9)"><path
         style="fill:#ffe600;fill-opacity:1;stroke:#ffe600;stroke-width:1;stroke-linecap:butt;stroke-linejoin:miter;stroke-dasharray:none;stroke-opacity:1"
         d="m 4,5.5 h 8.928935"
         id="path38" /><path
         style="fill:none;stroke:#fff8b8;stroke-width:1px;stroke-linecap:butt;stroke-linejoin:miter;stroke-opacity:1"
         d="m 4,4.5 h 8.928935"
         id="path39" /><path
         style="fill:none;stroke:#fff8b8;stroke-width:1px;stroke-linecap:butt;stroke-linejoin:miter;stroke-opacity:1"
         d="m 4,6.5 h 8.928935"
         id="path40" /></g><g
       fill="none"
       stroke="currentColor"
       stroke-linecap="round"
       stroke-linejoin="round"
       stroke-width="2"
       id="g2"
       transform="translate(-2,-2)"
       style="stroke:#374151;stroke-opacity:1"><path
         style="fill:none;stroke:#374151;stroke-width:2;stroke-linecap:square;stroke-linejoin:miter;stroke-dasharray:none;stroke-opacity:1"
         d="M 3,12 V 3 h 18 v 9 H 3"
         id="path28"
         sodipodi:nodetypes="ccccc" /><path
         d="M 3,12 H 21"
         id="path1"
         style="stroke:#374151;stroke-opacity:1" /><path
         id="path29"
         d="M 20.999999 12 L 21 17 C 21 19.215998 19.215998 21 17 21 L 7 21 C 4.7840022 21 3 19.215998 3 17 L 3 12 "
         style="fill:none;stroke:#374151;stroke-opacity:1" /></g><g
       id="g37"><path
         style="fill:#ffe600;fill-opacity:1;stroke:#ffe600;stroke-width:1;stroke-linecap:butt;stroke-linejoin:miter;stroke-dasharray:none;stroke-opacity:1"
         d="m 4,5.5 h 8.928935"
         id="path30" /><path
         style="fill:none;stroke:#fff8b8;stroke-width:1px;stroke-linecap:butt;stroke-linejoin:miter;stroke-opacity:1"
         d="m 4,4.5 h 8.928935"
         id="path33" /><path
         style="fill:none;stroke:#fff8b8;stroke-width:1px;stroke-linecap:butt;stroke-linejoin:miter;stroke-opacity:1"
         d="m 4,6.5 h 8.928935"
         id="path34" /></g><path
       style="fill:none;stroke:#48d22d;stroke-width:1;stroke-linecap:butt;stroke-linejoin:miter;stroke-dasharray:none;stroke-opacity:1"
       d="m 12.928935,5.5 h 3"
       id="path31"
       sodipodi:nodetypes="cc" /><path
       style="fill:none;stroke:#e0ffcc;stroke-width:1px;stroke-linecap:butt;stroke-linejoin:miter;stroke-opacity:1"
       d="m 12.928935,4.5 h 3.02031"
       id="path35"
       sodipodi:nodetypes="cc" /><path
       style="fill:none;stroke:#e0ffcc;stroke-width:1px;stroke-linecap:butt;stroke-linejoin:miter;stroke-opacity:1"
       d="m 12.928935,6.5 h 3.02031"
       id="path37"
       sodipodi:nodetypes="cc" /><path
       style="fill:#f9fafb;fill-opacity:1;stroke:none;stroke-width:0.129442;stroke-linecap:round;stroke-miterlimit:0;stroke-dasharray:none;stroke-dashoffset:85.3039;stroke-opacity:1;paint-order:markers fill stroke"
       d="M 2.0279223,5.5012785 V 2.0279223 h 7.9822467 7.982248 V 5.5012785 8.9746347 H 10.010169 2.0279223 Z m 13.9365717,0 V 3.9695499 H 9.9670221 3.9695499 v 1.5029637 c 0,0.82663 0.012944,1.515908 0.028765,1.5317284 0.015821,0.015821 2.714683,0.028765 5.9974723,0.028765 h 5.9687068 z"
       id="path42" /><path
       style="fill:#f9fafb;fill-opacity:1;stroke:none;stroke-width:0.129442;stroke-linecap:round;stroke-miterlimit:0;stroke-dasharray:none;stroke-dashoffset:85.3039;stroke-opacity:1;paint-order:markers fill stroke"
       d="M 4.5679824,17.946851 C 3.5656384,17.796927 2.7102896,17.142693 2.2821683,16.198492 2.0393566,15.662982 2.0294919,15.545158 2.0286714,13.170708 l -7.491e-4,-2.168151 h 7.9850367 7.985037 l -0.01607,2.232872 c -0.018,2.501652 -0.01133,2.440903 -0.342496,3.117391 -0.25376,0.518365 -0.768246,1.032851 -1.286611,1.286611 -0.726833,0.355813 -0.231474,0.328962 -6.213209,0.336787 -2.9307789,0.0038 -5.4380119,-0.0094 -5.5716286,-0.02937 z M 13.030479,14.497487 V 12.987332 H 8.5431618 4.0558445 v 1.510155 1.510155 h 4.4873173 4.4873172 z"
       id="path43" /></g></svg>
