<?xml version="1.0" encoding="UTF-8" standalone="no"?>
<!-- Created with Inkscape (http://www.inkscape.org/) -->

<svg
   width="20"
   height="20"
   viewBox="0 0 20 20"
   version="1.1"
   id="svg1"
   xml:space="preserve"
   sodipodi:docname="simple_text_diff_switch.svg"
   inkscape:version="1.3.2 (091e20e, 2023-11-25, custom)"
   xmlns:inkscape="http://www.inkscape.org/namespaces/inkscape"
   xmlns:sodipodi="http://sodipodi.sourceforge.net/DTD/sodipodi-0.dtd"
   xmlns="http://www.w3.org/2000/svg"
   xmlns:svg="http://www.w3.org/2000/svg"><sodipodi:namedview
     id="namedview1"
     pagecolor="#ffffff"
     bordercolor="#666666"
     borderopacity="1.0"
     inkscape:showpageshadow="2"
     inkscape:pageopacity="0.0"
     inkscape:pagecheckerboard="0"
     inkscape:deskcolor="#d1d1d1"
     inkscape:document-units="px"
     inkscape:zoom="4"
     inkscape:cx="-37.25"
     inkscape:cy="58.125"
     inkscape:window-width="1920"
     inkscape:window-height="1009"
     inkscape:window-x="-8"
     inkscape:window-y="-8"
     inkscape:window-maximized="1"
     inkscape:current-layer="layer1"
     showguides="false" /><defs
     id="defs1" /><g
     inkscape:label="Camada 1"
     inkscape:groupmode="layer"
     id="layer1"><path
       style="fill:#ffe600;fill-opacity:1;stroke-width:0.0529543;stroke-miterlimit:0;stroke-dasharray:none;stroke-dashoffset:85.3039;paint-order:markers fill stroke"
       d="M 8.051101,8.00002 V 0 L 5.948899,0.00154 C 4.3726704,0.002693 2.7129826,0.0181321 2.4654072,0.063229 1.2840239,0.2784225 0.3827757,1.1193249 0.086325,2.2830132 0.0028918,2.6105111 0,2.8023439 0,8.00002 c 0,5.197678 -0.065823,6.530997 0.017612,6.858494 0.2373494,0.93169 0.9366638,1.737151 1.7894775,2.061098 0.5254168,0.199582 1.8391505,0.218735 4.0730965,0.220372 l 2.102202,0.0015 z"
       id="path5"
       sodipodi:nodetypes="cccscscsccc" /><path
       style="fill:#48d22d;fill-opacity:1;stroke-width:0.0529543;stroke-miterlimit:0;stroke-dasharray:none;stroke-dashoffset:85.3039;paint-order:markers fill stroke"
       d="m 12,12.000022 0.04317,-9.1415286 3.102197,0.00154 c 1.576229,0.00115 2.184816,0.016592 2.432391,0.061689 1.181384,0.2151935 2.082632,1.0560959 2.379082,2.2197842 C 20.040265,5.4690045 20,6.8023459 20,12.000022 c 0,5.197678 -0.0029,5.389511 -0.08633,5.717008 -0.237349,0.93169 -0.936663,1.737151 -1.789477,2.061098 -0.525417,0.199582 -0.78805,0.218735 -3.021996,0.220372 L 12,20 Z"
       id="path6"
       sodipodi:nodetypes="cccsssssccc" /></g></svg>
