<?xml version="1.0" encoding="UTF-8" standalone="no"?>
<!-- Created with Inkscape (http://www.inkscape.org/) -->

<svg
   width="20"
   height="20"
   viewBox="0 0 20 20"
   version="1.1"
   id="svg1"
   xml:space="preserve"
   sodipodi:docname="simple_text_diff_switch_simple.svg"
   inkscape:version="1.3.2 (091e20e, 2023-11-25, custom)"
   xmlns:inkscape="http://www.inkscape.org/namespaces/inkscape"
   xmlns:sodipodi="http://sodipodi.sourceforge.net/DTD/sodipodi-0.dtd"
   xmlns="http://www.w3.org/2000/svg"
   xmlns:svg="http://www.w3.org/2000/svg"><sodipodi:namedview
     id="namedview1"
     pagecolor="#ffffff"
     bordercolor="#666666"
     borderopacity="1.0"
     inkscape:showpageshadow="2"
     inkscape:pageopacity="0.0"
     inkscape:pagecheckerboard="0"
     inkscape:deskcolor="#d1d1d1"
     inkscape:document-units="px"
     inkscape:zoom="4"
     inkscape:cx="-36.5"
     inkscape:cy="-1.125"
     inkscape:window-width="1920"
     inkscape:window-height="1009"
     inkscape:window-x="-8"
     inkscape:window-y="-8"
     inkscape:window-maximized="1"
     inkscape:current-layer="layer1"
     showguides="false" /><defs
     id="defs1" /><g
     inkscape:label="Camada 1"
     inkscape:groupmode="layer"
     id="layer1"><path
       style="fill:#48d22d;fill-opacity:1;stroke-width:0.0529543;stroke-miterlimit:0;stroke-dasharray:none;stroke-dashoffset:85.3039;paint-order:markers fill stroke"
       d="M 9.051101,10.00002 V 2 L 6.948899,2.00154 C 5.3726704,2.002693 3.7129826,2.0181321 3.4654072,2.063229 2.2840239,2.2784225 1.3827757,3.1193249 1.086325,4.2830132 1.0028918,4.6105111 1,4.8023439 1,10.00002 c 0,5.197678 0.00289,5.389511 0.086325,5.717008 0.2373494,0.93169 0.9366638,1.737151 1.7894775,2.061098 0.5254168,0.199582 1.8391505,0.218735 4.0730965,0.220372 L 9.051101,18 Z"
       id="path5"
       sodipodi:nodetypes="cccscscsccc" /><path
       style="fill:#ffe600;fill-opacity:1;stroke-width:0.0529543;stroke-miterlimit:0;stroke-dasharray:none;stroke-dashoffset:85.3039;paint-order:markers fill stroke"
       d="M 10.948899,10.00002 V 2 l 2.102202,0.00154 c 1.576229,0.00115 3.235917,0.016592 3.483492,0.061689 1.181384,0.2151935 2.082632,1.0560959 2.379082,2.2197842 0.08343,0.3274979 0.08633,0.5193307 0.08633,5.7170068 0,5.197678 -0.0029,5.389511 -0.08633,5.717008 -0.237349,0.93169 -0.936663,1.737151 -1.789477,2.061098 -0.525417,0.199582 -1.839151,0.218735 -4.073097,0.220372 l -2.102202,0.0015 z"
       id="path6"
       sodipodi:nodetypes="cccsssssccc" /></g></svg>
