<?xml version="1.0" encoding="UTF-8" standalone="no"?>
<!-- Created with Inkscape (http://www.inkscape.org/) -->

<svg
   width="20"
   height="20"
   viewBox="0 0 20 20"
   version="1.1"
   id="svg1"
   xml:space="preserve"
   sodipodi:docname="simple_text_diff_mono.svg"
   inkscape:version="1.3.2 (091e20e, 2023-11-25, custom)"
   inkscape:export-filename="..\app-icon.png"
   inkscape:export-xdpi="4915.2002"
   inkscape:export-ydpi="4915.2002"
   xmlns:inkscape="http://www.inkscape.org/namespaces/inkscape"
   xmlns:sodipodi="http://sodipodi.sourceforge.net/DTD/sodipodi-0.dtd"
   xmlns="http://www.w3.org/2000/svg"
   xmlns:svg="http://www.w3.org/2000/svg"><sodipodi:namedview
     id="namedview1"
     pagecolor="#ffffff"
     bordercolor="#666666"
     borderopacity="1.0"
     inkscape:showpageshadow="2"
     inkscape:pageopacity="0.0"
     inkscape:pagecheckerboard="0"
     inkscape:deskcolor="#d1d1d1"
     inkscape:document-units="px"
     inkscape:zoom="22.65"
     inkscape:cx="8.3002208"
     inkscape:cy="11.147903"
     inkscape:window-width="1920"
     inkscape:window-height="1009"
     inkscape:window-x="-8"
     inkscape:window-y="-8"
     inkscape:window-maximized="1"
     inkscape:current-layer="g1"
     showguides="false" /><defs
     id="defs1" /><g
     inkscape:label="Camada 1"
     inkscape:groupmode="layer"
     id="layer1"><g
       id="g1"
       transform="translate(-0.5000025)"><path
         style="fill:#6b7280;fill-opacity:1;stroke-width:0.0529543;stroke-miterlimit:0;stroke-dasharray:none;stroke-dashoffset:85.3039;paint-order:markers fill stroke"
         d="M 9,10.00002 V 2 L 6.897798,2.00154 C 5.3215694,2.002693 4.7129826,2.0181321 4.4654072,2.063229 3.2840239,2.2784225 2.3827757,3.1193249 2.086325,4.2830132 2.0028918,4.6105111 2,4.8023439 2,10.00002 c 0,5.197678 0.00289,5.389511 0.086325,5.717008 0.2373494,0.93169 0.9366638,1.737151 1.7894775,2.061098 0.5254168,0.199582 0.7880495,0.218735 3.0219955,0.220372 L 9,18 Z"
         id="path5" /><path
         style="fill:#d1d5db;fill-opacity:1;stroke-width:0.0529543;stroke-miterlimit:0;stroke-dasharray:none;stroke-dashoffset:85.3039;paint-order:markers fill stroke"
         d="M 12,10.00002 V 2 l 2.102202,0.00154 c 1.576229,0.00115 2.184816,0.016592 2.432391,0.061689 1.181384,0.2151935 2.082632,1.0560959 2.379082,2.2197842 0.08343,0.3274979 0.08633,0.5193307 0.08633,5.7170068 0,5.197678 -0.0029,5.389511 -0.08633,5.717008 -0.237349,0.93169 -0.936663,1.737151 -1.789477,2.061098 -0.525417,0.199582 -0.78805,0.218735 -3.021996,0.220372 L 12,17.999998 Z"
         id="path6" /></g></g></svg>
