<?xml version="1.0" encoding="UTF-8" standalone="no"?>
<svg
   width="24"
   height="24"
   viewBox="-24 -24 0 0"
   version="1.1"
   id="svg1"
   sodipodi:docname="tabler--arrows-diff.svg"
   inkscape:version="1.3.2 (091e20e, 2023-11-25, custom)"
   xmlns:inkscape="http://www.inkscape.org/namespaces/inkscape"
   xmlns:sodipodi="http://sodipodi.sourceforge.net/DTD/sodipodi-0.dtd"
   xmlns="http://www.w3.org/2000/svg"
   xmlns:svg="http://www.w3.org/2000/svg">
  <defs
     id="defs1" />
  <sodipodi:namedview
     id="namedview1"
     pagecolor="#ffffff"
     bordercolor="#666666"
     borderopacity="1.0"
     inkscape:showpageshadow="2"
     inkscape:pageopacity="0.0"
     inkscape:pagecheckerboard="0"
     inkscape:deskcolor="#d1d1d1"
     inkscape:zoom="11.313709"
     inkscape:cx="6.4523494"
     inkscape:cy="22.052893"
     inkscape:window-width="1920"
     inkscape:window-height="1009"
     inkscape:window-x="-8"
     inkscape:window-y="-8"
     inkscape:window-maximized="1"
     inkscape:current-layer="svg1" />
  <g
     id="g13">
    <path
       id="rect2"
       style="fill:#374151;stroke:none;stroke-width:1.206;stroke-miterlimit:0;stroke-dashoffset:85.3039;paint-order:markers fill stroke;fill-opacity:1"
       d="M 8 -8 C 6.3380017 -8 5 -6.6619983 5 -5 L 5 13 C 5 14.661998 6.3380017 16 8 16 L 17 16 L 17 -8 L 8 -8 z "
       transform="translate(-5,8)" />
    <path
       id="path4"
       style="fill:#6b7280;stroke:none;stroke-width:1.206;stroke-miterlimit:0;stroke-dashoffset:85.3039;paint-order:markers fill stroke;fill-opacity:1"
       d="m 21,0 c 1.661998,0 3,1.3380017 3,3 v 18 c 0,1.661998 -1.338002,3 -3,3 H 12 V 0 Z" />
  </g>
  <g
     transform="matrix(-1,0,0,1,-5,8)"
     id="g2" />
  <g
     id="g14"
     style="fill:#000000;stroke:#a3dc17;stroke-opacity:1"
     transform="translate(0,-0.5)">
    <path
       d="M 13,7.5 H 3 m 10,0 -2,2 -2,2 m 4,-4 -4,-4"
       style="fill:#000000;stroke:#caf2c2;stroke-width:2;stroke-linecap:round;stroke-linejoin:round;stroke-opacity:1"
       id="path1-6" />
    <path
       fill="none"
       stroke="currentColor"
       stroke-linecap="round"
       stroke-linejoin="round"
       stroke-width="2"
       d="m 11,17.5 h 10 m -10,0 4,4 m -4,-4 4,-4"
       id="path1"
       sodipodi:nodetypes="cccccc"
       style="fill:none;fill-opacity:1;stroke:#feffd6;stroke-opacity:1" />
  </g>
</svg>
